<?xml version="1.0" encoding="utf-8"?>
<!-- Generator: Adobe Illustrator 25.4.1, SVG Export Plug-In . SVG Version: 6.00 Build 0)  -->
<svg version="1.1" id="Capa_1" xmlns="http://www.w3.org/2000/svg" xmlns:xlink="http://www.w3.org/1999/xlink" x="0px" y="0px"
	 viewBox="0 0 189.548 71.829" enable-background="new 0 0 189.548 71.829" xml:space="preserve">
<g opacity="0.7">
	<path fill="#B3D862" d="M161.116,64.209H28.432c-11.173,0-20.315-9.142-20.315-20.315V33.296c0-11.173,9.142-20.315,20.315-20.315
		h132.685c11.173,0,20.315,9.142,20.315,20.315v10.598C181.431,55.067,172.289,64.209,161.116,64.209z"/>
</g>
<path fill="#FCFCFC" stroke="#4AA147" stroke-width="4.267" stroke-miterlimit="10" d="M160.405,57.572H34.121
	c-10.534,0-19.153-8.619-19.153-19.153v-9.645c0-10.534,8.619-19.153,19.153-19.153h126.284c10.534,0,19.153,8.619,19.153,19.153
	v9.645C179.558,48.953,170.939,57.572,160.405,57.572z"/>
<g>
	<g>
		<g>
			<path fill="#4F9C44" d="M44.411,42.535c-0.023,0-0.078,0.006-0.164,0.018s-0.178,0.027-0.275,0.047s-0.189,0.035-0.275,0.047
				s-0.137,0.018-0.152,0.018h-0.07c-0.141,0-0.283-0.008-0.428-0.023s-0.283-0.023-0.416-0.023s-0.236,0.002-0.311,0.006
				s-0.186,0.018-0.334,0.041c-0.016,0.016-0.051,0.031-0.105,0.047s-0.09,0.023-0.105,0.023h-0.023
				c-0.109,0-0.191-0.039-0.246-0.117c-0.008-0.031-0.02-0.086-0.035-0.164s-0.035-0.162-0.059-0.252s-0.043-0.172-0.059-0.246
				s-0.027-0.127-0.035-0.158v-0.023v-0.047c0.008-0.211,0.016-0.479,0.023-0.803s0.016-0.641,0.023-0.949s0.014-0.574,0.018-0.797
				s0.006-0.342,0.006-0.357c0-0.023,0.002-0.066,0.006-0.129s0.01-0.131,0.018-0.205s0.014-0.143,0.018-0.205
				s0.006-0.105,0.006-0.129V33.23c-0.055-0.422-0.09-0.842-0.105-1.26c-0.016-0.418-0.023-0.838-0.023-1.26
				s0.004-0.844,0.012-1.266s0.008-0.848,0-1.277c0-0.039-0.004-0.131-0.012-0.275s-0.016-0.299-0.023-0.463
				s-0.016-0.316-0.023-0.457s-0.012-0.23-0.012-0.27v-0.457v-0.434c0.016-0.445,0.023-0.859,0.023-1.242s-0.012-0.797-0.035-1.242
				c0.023-0.07,0.062-0.111,0.117-0.123s0.113-0.018,0.176-0.018c0.016,0,0.031,0.002,0.047,0.006s0.035,0.006,0.059,0.006
				c0.023,0.008,0.051,0.012,0.082,0.012s0.117,0.002,0.258,0.006s0.291,0.008,0.451,0.012s0.311,0.008,0.451,0.012
				s0.227,0.006,0.258,0.006h0.41c0.102,0.016,0.217,0.018,0.346,0.006s0.26-0.025,0.393-0.041s0.264-0.031,0.393-0.047
				s0.248-0.023,0.357-0.023c0.086,0,0.174-0.012,0.264-0.035s0.178-0.035,0.264-0.035h0.023c0.016,0.016,0.061,0.051,0.135,0.105
				s0.123,0.09,0.146,0.105l0.129,0.059c0.023,0.023,0.053,0.08,0.088,0.17s0.053,0.143,0.053,0.158c0,0.039,0.008,0.119,0.023,0.24
				s0.031,0.201,0.047,0.24c0,0.039-0.01,0.119-0.029,0.24s-0.041,0.25-0.064,0.387s-0.045,0.268-0.064,0.393
				s-0.029,0.203-0.029,0.234c0.039,0.047,0.072,0.117,0.1,0.211s0.041,0.16,0.041,0.199c0,0.016-0.02,0.061-0.059,0.135
				s-0.066,0.119-0.082,0.135v0.234v0.246c0.008,0.023,0.02,0.078,0.035,0.164s0.031,0.178,0.047,0.275s0.029,0.189,0.041,0.275
				s0.018,0.141,0.018,0.164v1.277c0.031,0.391,0.062,0.832,0.094,1.324s0.059,1.012,0.082,1.559
				c0.023,0.547,0.043,1.107,0.059,1.682s0.029,1.135,0.041,1.682s0.021,1.068,0.029,1.564s0.012,0.941,0.012,1.336
				s-0.004,0.723-0.012,0.984s-0.02,0.436-0.035,0.521c-0.016,0.18-0.023,0.357-0.023,0.533s0,0.357,0,0.545
				c-0.016,0.062-0.023,0.148-0.023,0.258s0.002,0.221,0.006,0.334s0.01,0.213,0.018,0.299s0.016,0.133,0.023,0.141
				c-0.109,0.32-0.273,0.553-0.492,0.697s-0.438,0.24-0.656,0.287s-0.408,0.064-0.568,0.053s-0.236-0.014-0.229-0.006L44.411,42.535
				z"/>
			<path fill="#4F9C44" d="M48.665,42.758c-0.102-0.023-0.184-0.055-0.246-0.094c-0.07-0.047-0.123-0.104-0.158-0.17
				s-0.059-0.135-0.07-0.205s-0.016-0.137-0.012-0.199s0.006-0.117,0.006-0.164c0-0.594-0.008-1.186-0.023-1.775
				s-0.029-1.182-0.041-1.775s-0.012-1.188,0-1.781s0.041-1.188,0.088-1.781l-0.047-0.551c0.008-0.062,0.016-0.121,0.023-0.176
				c0.008-0.047,0.012-0.096,0.012-0.146s0.004-0.096,0.012-0.135v-0.691c0-0.047,0-0.154,0-0.322s0-0.35,0-0.545
				s0.002-0.381,0.006-0.557s0.006-0.287,0.006-0.334c0-0.039,0.006-0.145,0.018-0.316s0.023-0.355,0.035-0.551
				s0.02-0.379,0.023-0.551s0.006-0.281,0.006-0.328c0.008-0.172,0.002-0.367-0.018-0.586s-0.033-0.418-0.041-0.598l0.023-0.41
				c0-0.094,0.025-0.158,0.076-0.193s0.105-0.057,0.164-0.064s0.113-0.008,0.164,0s0.08,0.008,0.088,0
				c0.023,0,0.068-0.002,0.135-0.006s0.137-0.01,0.211-0.018s0.143-0.016,0.205-0.023s0.102-0.016,0.117-0.023
				c0.156,0,0.301,0,0.434,0s0.264,0,0.393,0s0.26,0.002,0.393,0.006s0.281,0.01,0.445,0.018l0.129,0.012
				c0.008,0,0.033,0.004,0.076,0.012s0.09,0.016,0.141,0.023s0.1,0.018,0.146,0.029s0.082,0.021,0.105,0.029
				c0.164,0.031,0.279,0.068,0.346,0.111s0.109,0.102,0.129,0.176s0.031,0.166,0.035,0.275s0.021,0.242,0.053,0.398
				c0.336-0.305,0.688-0.551,1.055-0.738s0.746-0.33,1.137-0.428s0.791-0.158,1.201-0.182s0.834-0.023,1.271,0
				c0.117,0,0.242,0.014,0.375,0.041s0.268,0.061,0.404,0.1s0.27,0.086,0.398,0.141s0.244,0.109,0.346,0.164
				c0.07,0.047,0.162,0.113,0.275,0.199s0.225,0.174,0.334,0.264s0.205,0.168,0.287,0.234s0.127,0.1,0.135,0.1
				c0.219,0.164,0.412,0.354,0.58,0.568s0.312,0.443,0.434,0.686s0.223,0.496,0.305,0.762s0.15,0.527,0.205,0.785
				c0.023,0.031,0.051,0.111,0.082,0.24s0.061,0.273,0.088,0.434c0.027,0.16,0.051,0.322,0.07,0.486s0.029,0.293,0.029,0.387v0.199
				c0,0.031,0,0.109,0,0.234s0.002,0.262,0.006,0.41s0.008,0.285,0.012,0.41s0.006,0.203,0.006,0.234l0.012,1.945l-0.023,0.41
				c-0.008,0.023-0.016,0.07-0.023,0.141s-0.018,0.145-0.029,0.223s-0.021,0.152-0.029,0.223s-0.012,0.121-0.012,0.152l-0.012,0.258
				c-0.008,0.148-0.012,0.338-0.012,0.568s-0.002,0.477-0.006,0.738s-0.006,0.527-0.006,0.797s0,0.518,0,0.744
				s0.002,0.418,0.006,0.574s0.006,0.254,0.006,0.293c0,0.023,0,0.072,0,0.146s0,0.154,0,0.24s0.002,0.166,0.006,0.24
				s0.006,0.119,0.006,0.135l-0.012,0.117c0,0.086-0.049,0.139-0.146,0.158s-0.178,0.033-0.24,0.041c-0.023,0-0.057,0.002-0.1,0.006
				s-0.088,0.01-0.135,0.018s-0.088,0.014-0.123,0.018s-0.057,0.01-0.064,0.018c-0.023,0-0.082,0-0.176,0s-0.195,0-0.305,0
				s-0.211,0.002-0.305,0.006s-0.152,0.01-0.176,0.018c-0.367,0.016-0.709,0.037-1.025,0.064s-0.666,0.033-1.049,0.018
				c-0.141-0.008-0.238-0.045-0.293-0.111s-0.09-0.146-0.105-0.24s-0.02-0.193-0.012-0.299s0.012-0.205,0.012-0.299
				c0-0.039,0-0.131,0-0.275s0.002-0.311,0.006-0.498s0.006-0.391,0.006-0.609s0.002-0.422,0.006-0.609s0.006-0.352,0.006-0.492
				s0-0.234,0-0.281l0.012-2.719c0.016-0.273,0.016-0.59,0-0.949s-0.053-0.73-0.111-1.113s-0.139-0.758-0.24-1.125
				s-0.227-0.693-0.375-0.979c-0.148-0.285-0.32-0.51-0.516-0.674s-0.414-0.234-0.656-0.211l-0.41-0.023
				c-0.273-0.008-0.498,0.023-0.674,0.094s-0.385,0.176-0.627,0.316c-0.016,0-0.031,0.01-0.047,0.029S53.27,31.785,53.27,31.8
				c-0.219,0.164-0.404,0.396-0.557,0.697s-0.281,0.641-0.387,1.02s-0.193,0.781-0.264,1.207s-0.129,0.846-0.176,1.26
				c-0.008,0.039-0.02,0.137-0.035,0.293s-0.033,0.33-0.053,0.521s-0.035,0.383-0.047,0.574s-0.021,0.338-0.029,0.439
				c0,0.008-0.002,0.047-0.006,0.117s-0.01,0.154-0.018,0.252s-0.016,0.193-0.023,0.287s-0.012,0.168-0.012,0.223
				c0,0.039-0.002,0.102-0.006,0.188s-0.006,0.178-0.006,0.275s-0.002,0.189-0.006,0.275s-0.006,0.145-0.006,0.176l0.012,1.758
				c-0.008,0.023-0.004,0.07,0.012,0.141s0.023,0.117,0.023,0.141c0,0.008,0.002,0.029,0.006,0.064S51.7,41.781,51.7,41.82
				s0,0.078,0,0.117s0,0.062,0,0.07c0,0.062,0.004,0.137,0.012,0.223s0.004,0.17-0.012,0.252s-0.049,0.15-0.1,0.205
				s-0.139,0.078-0.264,0.07c-0.18-0.008-0.377-0.01-0.592-0.006s-0.439,0.01-0.674,0.018s-0.473,0.014-0.715,0.018
				S48.883,42.781,48.665,42.758z"/>
			<path fill="#4F9C44" d="M63.7,42.91c0-0.039,0.021-0.102,0.064-0.188s0.084-0.129,0.123-0.129h2.145
				c0.023,0.016,0.068,0.031,0.135,0.047s0.107,0.023,0.123,0.023h0.082h0.07c0.031,0,0.096-0.002,0.193-0.006
				s0.203-0.008,0.316-0.012s0.219-0.008,0.316-0.012s0.162-0.01,0.193-0.018h0.023h0.047c0.039,0.023,0.102,0.053,0.188,0.088
				s0.137,0.053,0.152,0.053c0.094,0.062,0.166,0.119,0.217,0.17s0.107,0.123,0.17,0.217c0.008,0.016,0.02,0.049,0.035,0.1
				s0.037,0.109,0.064,0.176s0.055,0.131,0.082,0.193s0.057,0.109,0.088,0.141c0.086,0.234,0.252,0.438,0.498,0.609
				s0.564,0.281,0.955,0.328h0.07c0.438,0.062,0.76,0.094,0.967,0.094s0.369-0.02,0.486-0.059c0.391-0.062,0.783-0.162,1.178-0.299
				s0.744-0.342,1.049-0.615c0.148-0.133,0.277-0.289,0.387-0.469s0.199-0.373,0.27-0.58s0.123-0.422,0.158-0.645
				s0.053-0.439,0.053-0.65v-0.211c-0.266,0.203-0.57,0.35-0.914,0.439s-0.672,0.166-0.984,0.229
				c-0.469,0.094-0.912,0.164-1.33,0.211s-0.869,0.07-1.354,0.07c-0.039,0-0.105-0.004-0.199-0.012s-0.193-0.018-0.299-0.029
				s-0.205-0.023-0.299-0.035s-0.156-0.018-0.188-0.018c-0.461-0.07-0.918-0.203-1.371-0.398s-0.867-0.438-1.242-0.727
				c-0.031-0.023-0.086-0.057-0.164-0.1s-0.162-0.086-0.252-0.129s-0.176-0.086-0.258-0.129s-0.139-0.084-0.17-0.123
				c-0.047-0.039-0.115-0.102-0.205-0.188s-0.182-0.176-0.275-0.27s-0.18-0.18-0.258-0.258s-0.129-0.129-0.152-0.152
				c-0.18-0.219-0.32-0.436-0.422-0.65s-0.207-0.443-0.316-0.686c-0.289-0.641-0.475-1.277-0.557-1.91s-0.123-1.293-0.123-1.98
				c-0.016-0.219-0.021-0.41-0.018-0.574s0.02-0.32,0.047-0.469s0.066-0.295,0.117-0.439s0.115-0.307,0.193-0.486
				c0-0.008,0.014-0.059,0.041-0.152s0.061-0.199,0.1-0.316c0.039-0.117,0.078-0.236,0.117-0.357s0.074-0.221,0.105-0.299
				c0.102-0.273,0.191-0.494,0.27-0.662s0.16-0.316,0.246-0.445s0.184-0.256,0.293-0.381s0.246-0.281,0.41-0.469
				c0.023-0.023,0.061-0.062,0.111-0.117s0.105-0.111,0.164-0.17s0.113-0.113,0.164-0.164s0.088-0.084,0.111-0.1
				c0.008-0.008,0.064-0.041,0.17-0.1s0.229-0.129,0.369-0.211s0.281-0.166,0.422-0.252s0.246-0.152,0.316-0.199
				c0.109-0.062,0.246-0.115,0.41-0.158s0.301-0.076,0.41-0.1c0.43-0.086,0.83-0.156,1.201-0.211s0.775-0.082,1.213-0.082
				c0.266,0,0.541,0.02,0.826,0.059s0.572,0.088,0.861,0.146s0.572,0.123,0.85,0.193s0.545,0.137,0.803,0.199
				c0.133,0.086,0.266,0.145,0.398,0.176s0.266,0.07,0.398,0.117c0.016,0,0.031,0.008,0.047,0.023l0.023,0.023
				c0.07,0.094,0.148,0.197,0.234,0.311s0.191,0.193,0.316,0.24v-0.047c0-0.25,0.004-0.459,0.012-0.627s0.012-0.377,0.012-0.627
				V27.57l0.141-0.082c0.008,0,0.043-0.002,0.105-0.006s0.137-0.006,0.223-0.006s0.172-0.002,0.258-0.006s0.152-0.006,0.199-0.006
				c0.07,0,0.172,0.002,0.305,0.006s0.264,0.006,0.393,0.006s0.246,0.002,0.352,0.006s0.166,0.006,0.182,0.006
				s0.062,0.004,0.141,0.012s0.162,0.016,0.252,0.023s0.176,0.016,0.258,0.023s0.135,0.016,0.158,0.023h0.129
				c0.109,0,0.203,0.016,0.281,0.047s0.129,0.047,0.152,0.047c0.156,0.023,0.275,0.055,0.357,0.094s0.123,0.133,0.123,0.281
				c0,0.156-0.012,0.309-0.035,0.457s-0.035,0.301-0.035,0.457v0.023c0,0.016,0.012,0.039,0.035,0.07s0.035,0.055,0.035,0.07v0.023
				c0,0.109-0.012,0.211-0.035,0.305s-0.035,0.207-0.035,0.34c0,0.516,0.018,1.025,0.053,1.529s0.076,1.008,0.123,1.512
				s0.088,1.008,0.123,1.512s0.053,1.01,0.053,1.518c0,0.461-0.025,0.912-0.076,1.354s-0.096,0.893-0.135,1.354v0.41
				c-0.086,1-0.246,1.979-0.48,2.936s-0.586,1.881-1.055,2.771l-0.047,0.047c-0.008,0.016-0.016,0.027-0.023,0.035
				c-0.227,0.312-0.465,0.627-0.715,0.943s-0.531,0.584-0.844,0.803c-0.062,0.039-0.16,0.104-0.293,0.193s-0.27,0.182-0.41,0.275
				s-0.273,0.182-0.398,0.264s-0.207,0.135-0.246,0.158c-0.008,0.008-0.031,0.018-0.07,0.029s-0.086,0.025-0.141,0.041
				s-0.111,0.033-0.17,0.053s-0.104,0.037-0.135,0.053c-0.023,0.016-0.062,0.027-0.117,0.035s-0.09,0.02-0.105,0.035
				c-0.016,0-0.045,0.004-0.088,0.012s-0.09,0.016-0.141,0.023s-0.098,0.016-0.141,0.023s-0.072,0.016-0.088,0.023
				c-0.008,0-0.035,0.008-0.082,0.023c-0.023,0.008-0.043,0.016-0.059,0.023h-0.023h-0.047c-0.023,0-0.1,0.004-0.229,0.012
				s-0.266,0.018-0.41,0.029s-0.281,0.023-0.41,0.035s-0.205,0.021-0.229,0.029c-0.016,0-0.061-0.002-0.135-0.006
				s-0.152-0.008-0.234-0.012s-0.16-0.008-0.234-0.012s-0.119-0.006-0.135-0.006c-0.219,0.016-0.408,0.008-0.568-0.023
				s-0.35-0.059-0.568-0.082c-0.164,0-0.344-0.016-0.539-0.047s-0.395-0.07-0.598-0.117s-0.402-0.098-0.598-0.152
				s-0.371-0.105-0.527-0.152c-0.273-0.078-0.514-0.162-0.721-0.252s-0.404-0.189-0.592-0.299s-0.373-0.232-0.557-0.369
				s-0.389-0.295-0.615-0.475l-0.047-0.047c-0.203-0.25-0.402-0.473-0.598-0.668s-0.352-0.441-0.469-0.738
				c-0.016-0.023-0.039-0.086-0.07-0.188s-0.055-0.176-0.07-0.223c-0.062-0.195-0.119-0.379-0.17-0.551s-0.107-0.348-0.17-0.527
				V42.91z M67.743,35.691c0,0.016,0.008,0.049,0.023,0.1s0.031,0.084,0.047,0.1c0.016,0.039,0.021,0.107,0.018,0.205
				s0.014,0.178,0.053,0.24c0.055,0.117,0.133,0.254,0.234,0.41s0.215,0.311,0.34,0.463s0.258,0.293,0.398,0.422
				s0.277,0.217,0.41,0.264c0.008,0,0.033,0.006,0.076,0.018s0.094,0.023,0.152,0.035s0.115,0.023,0.17,0.035
				s0.098,0.021,0.129,0.029c0.242,0.062,0.479,0.102,0.709,0.117s0.467,0.023,0.709,0.023c0.25,0,0.521-0.016,0.814-0.047
				s0.574-0.09,0.844-0.176s0.516-0.207,0.738-0.363s0.393-0.359,0.51-0.609c0.008-0.031,0.027-0.086,0.059-0.164
				s0.064-0.16,0.1-0.246s0.068-0.168,0.1-0.246s0.055-0.133,0.07-0.164c0.18-0.547,0.248-1.074,0.205-1.582
				s-0.131-1.02-0.264-1.535c0-0.094-0.021-0.184-0.064-0.27s-0.088-0.172-0.135-0.258c-0.016-0.031-0.047-0.084-0.094-0.158
				s-0.096-0.156-0.146-0.246c-0.051-0.09-0.1-0.174-0.146-0.252s-0.078-0.133-0.094-0.164c-0.203-0.188-0.398-0.334-0.586-0.439
				s-0.379-0.182-0.574-0.229s-0.402-0.072-0.621-0.076s-0.457,0.006-0.715,0.029c-0.508,0-0.973,0.137-1.395,0.41
				s-0.787,0.615-1.096,1.025c-0.309,0.41-0.549,0.859-0.721,1.348s-0.258,0.947-0.258,1.377V35.691z"/>
			<path fill="#4F9C44" d="M81.793,42.875l-0.68-0.059c-0.062,0.008-0.098,0.006-0.105-0.006s-0.016-0.037-0.023-0.076
				c-0.008-0.094-0.01-0.174-0.006-0.24s-0.002-0.146-0.018-0.24c-0.008-0.086-0.027-0.154-0.059-0.205s-0.051-0.111-0.059-0.182
				c-0.008-0.047-0.012-0.09-0.012-0.129s0.02-0.078,0.059-0.117c0.016-0.109,0.023-0.355,0.023-0.738s-0.008-0.846-0.023-1.389
				s-0.033-1.137-0.053-1.781s-0.041-1.287-0.064-1.928s-0.043-1.246-0.059-1.816s-0.023-1.055-0.023-1.453
				c0.008-0.078,0.004-0.182-0.012-0.311s-0.033-0.266-0.053-0.41s-0.037-0.283-0.053-0.416s-0.016-0.242,0-0.328
				c0-0.016-0.002-0.053-0.006-0.111s-0.01-0.1-0.018-0.123c-0.039,0-0.061-0.02-0.064-0.059s-0.01-0.078-0.018-0.117l-0.012-0.094
				l0.07-0.117c0.016-0.203,0.02-0.377,0.012-0.521s-0.02-0.314-0.035-0.51c0-0.031-0.002-0.07-0.006-0.117s-0.01-0.098-0.018-0.152
				s-0.012-0.117-0.012-0.188c0-0.016-0.014-0.051-0.041-0.105s-0.041-0.09-0.041-0.105s0.006-0.049,0.018-0.1
				s0.021-0.084,0.029-0.1c0-0.008,0-0.037,0-0.088s0.002-0.104,0.006-0.158s0.008-0.105,0.012-0.152s0.01-0.078,0.018-0.094
				l0.023-0.023c0.008-0.008,0.012-0.023,0.012-0.047c0.266-0.031,0.523-0.076,0.773-0.135s0.508-0.092,0.773-0.1
				c0.32-0.016,0.629-0.008,0.926,0.023s0.602,0.066,0.914,0.105c0.039,0.008,0.096,0.014,0.17,0.018s0.148,0.012,0.223,0.023
				s0.143,0.037,0.205,0.076s0.098,0.098,0.105,0.176c0.016,0.133,0.01,0.242-0.018,0.328s-0.033,0.199-0.018,0.34v0.035
				c0,0.016,0.002,0.027,0.006,0.035s0.006,0.016,0.006,0.023c0.055-0.023,0.125-0.057,0.211-0.1s0.176-0.088,0.27-0.135
				s0.186-0.092,0.275-0.135s0.158-0.076,0.205-0.1c0.016-0.008,0.061-0.031,0.135-0.07s0.123-0.066,0.146-0.082
				c0.016,0,0.061-0.01,0.135-0.029s0.115-0.037,0.123-0.053c0.07-0.047,0.158-0.094,0.264-0.141s0.213-0.092,0.322-0.135
				s0.209-0.08,0.299-0.111s0.146-0.055,0.17-0.07c0.195-0.078,0.395-0.125,0.598-0.141s0.414-0.027,0.633-0.035
				c0.352-0.023,0.711,0.004,1.078,0.082s0.721,0.186,1.061,0.322s0.648,0.293,0.926,0.469s0.502,0.35,0.674,0.521
				c0.055,0.062,0.115,0.139,0.182,0.229s0.129,0.184,0.188,0.281s0.109,0.193,0.152,0.287s0.068,0.18,0.076,0.258
				c0,0.047-0.023,0.107-0.07,0.182s-0.104,0.15-0.17,0.229s-0.133,0.148-0.199,0.211s-0.115,0.102-0.146,0.117
				c-0.008,0.008-0.027,0.023-0.059,0.047s-0.064,0.047-0.1,0.07s-0.07,0.047-0.105,0.07s-0.057,0.039-0.064,0.047
				c-0.031,0.023-0.076,0.057-0.135,0.1s-0.117,0.088-0.176,0.135s-0.113,0.09-0.164,0.129s-0.08,0.062-0.088,0.07
				c-0.133,0.102-0.26,0.211-0.381,0.328s-0.25,0.227-0.387,0.328c-0.137,0.102-0.281,0.188-0.434,0.258s-0.322,0.109-0.51,0.117
				H89.27c-0.023-0.008-0.043-0.016-0.059-0.023c-0.023-0.008-0.051-0.02-0.082-0.035c-0.32-0.164-0.66-0.316-1.02-0.457
				c-0.359-0.141-0.719-0.207-1.078-0.199c-0.266,0.016-0.484,0.113-0.656,0.293c-0.172,0.18-0.332,0.367-0.48,0.562
				c-0.016,0.031-0.059,0.086-0.129,0.164s-0.113,0.137-0.129,0.176c-0.016,0.031-0.047,0.084-0.094,0.158s-0.096,0.154-0.146,0.24
				s-0.102,0.174-0.152,0.264s-0.084,0.162-0.1,0.217c-0.078,0.18-0.125,0.379-0.141,0.598s-0.031,0.426-0.047,0.621
				c-0.109,0.789-0.158,1.506-0.146,2.15s0.053,1.252,0.123,1.822c0.039,0.422,0.086,0.836,0.141,1.242s0.102,0.82,0.141,1.242
				c0.008,0.047,0.016,0.131,0.023,0.252s0.018,0.246,0.029,0.375s0.023,0.254,0.035,0.375s0.018,0.205,0.018,0.252
				c-0.016,0.008-0.029,0.016-0.041,0.023s-0.025,0.016-0.041,0.023l-0.047,0.023h-0.047h-0.023c-0.016,0-0.039-0.006-0.07-0.018
				s-0.055-0.025-0.07-0.041L81.793,42.875z"/>
		</g>
	</g>
	<g>
		<g>
			<path fill="#4F9C44" d="M91.864,34.73c0.047-0.289,0.105-0.572,0.176-0.85s0.148-0.557,0.234-0.838
				c0.062-0.203,0.115-0.383,0.158-0.539s0.096-0.332,0.158-0.527c0-0.016,0.01-0.059,0.029-0.129s0.043-0.146,0.07-0.229
				s0.053-0.156,0.076-0.223s0.039-0.107,0.047-0.123c0.086-0.273,0.211-0.52,0.375-0.738s0.336-0.438,0.516-0.656
				c0.008-0.008,0.033-0.037,0.076-0.088s0.092-0.105,0.146-0.164s0.105-0.115,0.152-0.17s0.082-0.094,0.105-0.117
				c0.008-0.008,0.023-0.027,0.047-0.059s0.049-0.068,0.076-0.111s0.053-0.08,0.076-0.111s0.043-0.051,0.059-0.059
				c0.328-0.281,0.689-0.535,1.084-0.762s0.805-0.422,1.23-0.586s0.859-0.291,1.301-0.381s0.877-0.139,1.307-0.146
				c0.484-0.039,0.988-0.031,1.512,0.023s1.012,0.184,1.465,0.387c0.383,0.117,0.713,0.25,0.99,0.398s0.512,0.293,0.703,0.434
				s0.35,0.268,0.475,0.381s0.234,0.193,0.328,0.24c0.242,0.211,0.461,0.418,0.656,0.621s0.373,0.414,0.533,0.633
				s0.311,0.451,0.451,0.697s0.277,0.521,0.41,0.826c0.023,0.07,0.057,0.197,0.1,0.381c0.043,0.184,0.088,0.377,0.135,0.58
				s0.09,0.396,0.129,0.58s0.062,0.311,0.07,0.381c0.008,0.016,0.014,0.051,0.018,0.105s0.006,0.121,0.006,0.199s0,0.154,0,0.229
				s0,0.135,0,0.182s-0.002,0.111-0.006,0.193s-0.006,0.164-0.006,0.246s0,0.154,0,0.217s-0.004,0.098-0.012,0.105
				c0,0.023-0.012,0.072-0.035,0.146s-0.047,0.152-0.07,0.234s-0.045,0.16-0.064,0.234s-0.029,0.119-0.029,0.135
				c-0.156,0.156-0.314,0.264-0.475,0.322s-0.348,0.096-0.562,0.111s-0.473,0.025-0.773,0.029s-0.666,0.029-1.096,0.076
				c-0.031,0-0.105,0-0.223,0s-0.246,0-0.387,0s-0.27,0.002-0.387,0.006s-0.191,0.006-0.223,0.006h-0.117
				c-0.016,0.016-0.049,0.027-0.1,0.035s-0.104,0.01-0.158,0.006s-0.104-0.014-0.146-0.029s-0.068-0.039-0.076-0.07
				c-0.008,0-0.043,0.002-0.105,0.006s-0.131,0.006-0.205,0.006s-0.148,0-0.223,0s-0.123-0.004-0.146-0.012
				c-0.008,0.008-0.02,0.012-0.035,0.012h-0.059c-0.188,0.008-0.402,0.016-0.645,0.023s-0.49,0.016-0.744,0.023
				s-0.502,0.014-0.744,0.018s-0.457,0.006-0.645,0.006c-0.281,0.016-0.533,0.018-0.756,0.006s-0.438-0.023-0.645-0.035
				s-0.422-0.021-0.645-0.029s-0.475-0.008-0.756,0c-0.039,0-0.078,0.002-0.117,0.006s-0.066,0.025-0.082,0.064
				c0,0.039,0.01,0.098,0.029,0.176s0.029,0.129,0.029,0.152c0.07,0.281,0.119,0.482,0.146,0.604s0.053,0.207,0.076,0.258
				s0.053,0.094,0.088,0.129s0.092,0.107,0.17,0.217c0,0.008,0.014,0.025,0.041,0.053s0.059,0.057,0.094,0.088
				s0.066,0.061,0.094,0.088s0.041,0.045,0.041,0.053c0.258,0.414,0.598,0.713,1.02,0.896s0.855,0.268,1.301,0.252
				c0.062,0,0.148-0.002,0.258-0.006s0.172-0.006,0.188-0.006c0.156-0.016,0.27-0.021,0.34-0.018s0.129,0.01,0.176,0.018
				s0.096,0.014,0.146,0.018s0.133-0.002,0.246-0.018s0.27-0.045,0.469-0.088s0.475-0.107,0.826-0.193
				c0.008,0,0.051-0.02,0.129-0.059s0.162-0.082,0.252-0.129s0.176-0.092,0.258-0.135s0.131-0.068,0.146-0.076
				c0.203-0.125,0.387-0.248,0.551-0.369s0.314-0.232,0.451-0.334s0.266-0.191,0.387-0.27s0.24-0.141,0.357-0.188h0.023h0.047
				c0.016-0.008,0.039-0.002,0.07,0.018s0.047,0.037,0.047,0.053c0.07,0.062,0.176,0.143,0.316,0.24s0.283,0.197,0.428,0.299
				s0.283,0.201,0.416,0.299s0.23,0.182,0.293,0.252c0.023,0.016,0.078,0.055,0.164,0.117s0.176,0.131,0.27,0.205
				s0.176,0.145,0.246,0.211s0.105,0.104,0.105,0.111v0.047c0,0.016,0.002,0.027,0.006,0.035s0.006,0.02,0.006,0.035
				c0.008,0.195-0.049,0.367-0.17,0.516s-0.248,0.293-0.381,0.434c-0.367,0.398-0.756,0.787-1.166,1.166s-0.857,0.693-1.342,0.943
				c-0.156,0.07-0.312,0.123-0.469,0.158s-0.312,0.08-0.469,0.135c-0.203,0.062-0.398,0.107-0.586,0.135s-0.371,0.045-0.551,0.053
				s-0.365,0.01-0.557,0.006s-0.396-0.002-0.615,0.006c-0.562,0.016-1.098-0.004-1.605-0.059s-1.031-0.16-1.57-0.316
				c-0.203-0.062-0.391-0.131-0.562-0.205s-0.334-0.156-0.486-0.246s-0.303-0.191-0.451-0.305s-0.301-0.236-0.457-0.369
				c-0.273-0.234-0.551-0.461-0.832-0.68s-0.547-0.477-0.797-0.773c-0.016-0.008-0.049-0.055-0.1-0.141s-0.08-0.141-0.088-0.164
				c-0.016-0.016-0.047-0.053-0.094-0.111s-0.096-0.121-0.146-0.188s-0.102-0.129-0.152-0.188s-0.08-0.096-0.088-0.111
				c-0.016-0.023-0.049-0.084-0.1-0.182s-0.109-0.211-0.176-0.34s-0.129-0.256-0.188-0.381s-0.104-0.227-0.135-0.305
				c-0.016-0.016-0.031-0.047-0.047-0.094s-0.023-0.078-0.023-0.094c-0.094-0.516-0.174-1.02-0.24-1.512s-0.096-1.004-0.088-1.535
				V34.73z M100.208,30.98c-0.398,0.008-0.77,0.057-1.113,0.146s-0.68,0.248-1.008,0.475c-0.109,0.07-0.232,0.16-0.369,0.27
				s-0.27,0.229-0.398,0.357s-0.236,0.266-0.322,0.41s-0.129,0.287-0.129,0.428c0.203-0.016,0.391-0.039,0.562-0.07
				s0.355-0.051,0.551-0.059h0.047c0.016,0.008,0.064,0.014,0.146,0.018s0.172,0.008,0.27,0.012s0.189,0.008,0.275,0.012
				s0.141,0.006,0.164,0.006c0.008,0,0.059,0,0.152,0s0.199,0,0.316,0s0.238,0,0.363,0s0.223,0,0.293,0s0.168-0.004,0.293-0.012
				s0.252-0.016,0.381-0.023s0.244-0.014,0.346-0.018s0.16-0.006,0.176-0.006c0.078,0,0.221-0.002,0.428-0.006
				s0.428-0.008,0.662-0.012s0.455-0.01,0.662-0.018s0.35-0.016,0.428-0.023c0.016,0,0.031-0.008,0.047-0.023l0.023-0.023
				c0-0.016-0.008-0.039-0.023-0.07s-0.031-0.055-0.047-0.07c-0.016-0.031-0.037-0.072-0.064-0.123s-0.057-0.102-0.088-0.152
				s-0.059-0.094-0.082-0.129s-0.039-0.057-0.047-0.064c-0.344-0.43-0.779-0.746-1.307-0.949S100.739,30.965,100.208,30.98z"/>
			<path fill="#4F9C44" d="M110.79,42.218c-0.266-0.141-0.514-0.273-0.744-0.398s-0.463-0.277-0.697-0.457
				c-0.109-0.102-0.227-0.201-0.352-0.299s-0.24-0.195-0.346-0.293s-0.193-0.201-0.264-0.311s-0.109-0.227-0.117-0.352
				c0-0.039,0.002-0.092,0.006-0.158s0.006-0.107,0.006-0.123c0.023-0.047,0.051-0.09,0.082-0.129
				c0.016-0.039,0.033-0.07,0.053-0.094s0.033-0.039,0.041-0.047c0.016-0.016,0.051-0.053,0.105-0.111s0.113-0.119,0.176-0.182
				s0.123-0.123,0.182-0.182s0.1-0.1,0.123-0.123c0.016-0.016,0.049-0.061,0.1-0.135s0.084-0.123,0.1-0.146
				c0.047-0.047,0.107-0.105,0.182-0.176s0.146-0.141,0.217-0.211s0.135-0.135,0.193-0.193s0.1-0.1,0.123-0.123
				c0.031-0.023,0.092-0.059,0.182-0.105s0.15-0.074,0.182-0.082h0.152c0.062,0,0.121,0.027,0.176,0.082s0.107,0.115,0.158,0.182
				s0.107,0.133,0.17,0.199s0.129,0.115,0.199,0.146c0.164,0.094,0.338,0.201,0.521,0.322s0.387,0.238,0.609,0.352
				s0.465,0.211,0.727,0.293s0.549,0.131,0.861,0.146c0.055,0.047,0.143,0.057,0.264,0.029s0.244-0.076,0.369-0.146
				s0.234-0.152,0.328-0.246s0.145-0.188,0.152-0.281c0-0.055-0.004-0.129-0.012-0.223s-0.021-0.189-0.041-0.287
				s-0.041-0.188-0.064-0.27s-0.051-0.146-0.082-0.193c-0.281-0.383-0.57-0.709-0.867-0.979s-0.652-0.518-1.066-0.744
				c-0.023-0.008-0.084-0.043-0.182-0.105s-0.205-0.129-0.322-0.199s-0.225-0.135-0.322-0.193s-0.154-0.096-0.17-0.111
				s-0.059-0.047-0.129-0.094s-0.146-0.1-0.229-0.158s-0.164-0.115-0.246-0.17s-0.139-0.098-0.17-0.129
				c-0.047-0.055-0.133-0.125-0.258-0.211s-0.215-0.148-0.27-0.188c-0.055-0.055-0.139-0.162-0.252-0.322s-0.234-0.33-0.363-0.51
				s-0.25-0.346-0.363-0.498s-0.193-0.252-0.24-0.299c-0.312-0.367-0.508-0.771-0.586-1.213c-0.078-0.441-0.109-0.881-0.094-1.318
				c0.008-0.18,0.045-0.383,0.111-0.609s0.139-0.439,0.217-0.639s0.15-0.367,0.217-0.504s0.107-0.205,0.123-0.205
				c0.039-0.062,0.09-0.133,0.152-0.211s0.129-0.152,0.199-0.223s0.141-0.137,0.211-0.199s0.133-0.113,0.188-0.152
				c0.188-0.148,0.377-0.266,0.568-0.352s0.389-0.156,0.592-0.211s0.412-0.102,0.627-0.141s0.439-0.082,0.674-0.129
				c0.219-0.023,0.502-0.041,0.85-0.053s0.764,0.029,1.248,0.123h0.047c0.328,0.047,0.656,0.127,0.984,0.24s0.648,0.254,0.961,0.422
				s0.609,0.357,0.891,0.568s0.543,0.438,0.785,0.68c0.031,0.047,0.082,0.113,0.152,0.199s0.141,0.172,0.211,0.258
				s0.135,0.164,0.193,0.234s0.096,0.113,0.111,0.129c0.031,0.047,0.049,0.092,0.053,0.135s0.006,0.088,0.006,0.135
				c-0.008,0.047-0.012,0.092-0.012,0.135s-0.027,0.076-0.082,0.1c-0.062,0.039-0.152,0.123-0.27,0.252s-0.234,0.26-0.352,0.393
				s-0.223,0.25-0.316,0.352s-0.152,0.145-0.176,0.129c-0.031,0.031-0.092,0.088-0.182,0.17s-0.184,0.168-0.281,0.258
				s-0.193,0.176-0.287,0.258c-0.094,0.082-0.164,0.143-0.211,0.182c-0.07,0.055-0.125,0.104-0.164,0.146s-0.102,0.061-0.188,0.053
				h-0.07c-0.016-0.008-0.039-0.023-0.07-0.047s-0.064-0.047-0.1-0.07s-0.068-0.047-0.1-0.07s-0.051-0.039-0.059-0.047
				c-0.07-0.031-0.189-0.102-0.357-0.211c-0.168-0.109-0.346-0.225-0.533-0.346s-0.363-0.236-0.527-0.346s-0.277-0.184-0.34-0.223
				c-0.031-0.008-0.08-0.02-0.146-0.035s-0.137-0.031-0.211-0.047s-0.145-0.031-0.211-0.047s-0.115-0.027-0.146-0.035h-0.023
				c-0.062,0.016-0.127,0.039-0.193,0.07s-0.129,0.07-0.188,0.117s-0.105,0.102-0.141,0.164s-0.045,0.129-0.029,0.199
				c-0.008,0.062-0.004,0.15,0.012,0.264s0.047,0.197,0.094,0.252c0.188,0.289,0.434,0.545,0.738,0.768s0.617,0.393,0.938,0.51
				c0.523,0.203,0.99,0.426,1.4,0.668s0.814,0.559,1.213,0.949c0.023,0.023,0.072,0.076,0.146,0.158s0.158,0.17,0.252,0.264
				s0.182,0.184,0.264,0.27s0.139,0.145,0.17,0.176c0.039,0.039,0.094,0.096,0.164,0.17s0.105,0.115,0.105,0.123
				c0.023,0.039,0.061,0.098,0.111,0.176s0.104,0.164,0.158,0.258s0.107,0.182,0.158,0.264s0.088,0.143,0.111,0.182
				c0.047,0.062,0.084,0.152,0.111,0.27s0.047,0.246,0.059,0.387s0.02,0.283,0.023,0.428s0.002,0.268-0.006,0.369
				c0,0.016-0.002,0.047-0.006,0.094s-0.006,0.098-0.006,0.152s-0.002,0.107-0.006,0.158s-0.006,0.08-0.006,0.088
				c-0.094,0.734-0.33,1.373-0.709,1.916s-0.857,1.049-1.436,1.518c-0.188,0.148-0.377,0.271-0.568,0.369s-0.402,0.176-0.633,0.234
				s-0.484,0.104-0.762,0.135s-0.596,0.051-0.955,0.059c-0.281-0.008-0.568-0.043-0.861-0.105s-0.584-0.135-0.873-0.217
				s-0.576-0.166-0.861-0.252S111.063,42.289,110.79,42.218z"/>
			<path fill="#4F9C44" d="M131.754,42.734c-0.094-0.055-0.135-0.133-0.123-0.234s0.014-0.199,0.006-0.293
				c0-0.016-0.012-0.039-0.035-0.07s-0.035-0.055-0.035-0.07v-0.105c0-0.109,0.023-0.207,0.07-0.293s0.07-0.18,0.07-0.281v-0.07
				c-0.023,0-0.061,0.008-0.111,0.023s-0.084,0.031-0.1,0.047c-0.055,0.039-0.143,0.098-0.264,0.176s-0.252,0.16-0.393,0.246
				s-0.277,0.164-0.41,0.234s-0.234,0.109-0.305,0.117l-0.914,0.375h-0.07c-0.016,0-0.043,0.004-0.082,0.012
				s-0.08,0.018-0.123,0.029s-0.086,0.021-0.129,0.029s-0.068,0.012-0.076,0.012h-0.715c-0.148,0-0.281,0-0.398,0
				s-0.229-0.004-0.334-0.012s-0.215-0.016-0.328-0.023s-0.24-0.023-0.381-0.047c-0.016-0.008-0.057-0.02-0.123-0.035
				s-0.137-0.031-0.211-0.047s-0.145-0.029-0.211-0.041s-0.107-0.018-0.123-0.018h-0.609l-0.387-0.152
				c-0.055-0.023-0.139-0.066-0.252-0.129s-0.234-0.129-0.363-0.199s-0.252-0.137-0.369-0.199s-0.203-0.105-0.258-0.129
				c-0.047-0.023-0.117-0.057-0.211-0.1s-0.189-0.09-0.287-0.141s-0.189-0.096-0.275-0.135s-0.141-0.066-0.164-0.082
				c-0.008-0.008-0.027-0.025-0.059-0.053s-0.068-0.061-0.111-0.1s-0.086-0.076-0.129-0.111s-0.076-0.061-0.1-0.076
				c-0.195-0.195-0.383-0.41-0.562-0.645s-0.359-0.457-0.539-0.668c-0.164-0.195-0.301-0.453-0.41-0.773s-0.199-0.658-0.27-1.014
				s-0.121-0.705-0.152-1.049s-0.047-0.641-0.047-0.891c0-0.32,0.002-0.617,0.006-0.891s0.02-0.541,0.047-0.803
				s0.068-0.525,0.123-0.791s0.133-0.551,0.234-0.855c0.008-0.047,0.037-0.146,0.088-0.299c0.051-0.152,0.104-0.305,0.158-0.457
				s0.102-0.275,0.141-0.369s0.055-0.098,0.047-0.012c0.125-0.359,0.289-0.693,0.492-1.002s0.434-0.596,0.691-0.861
				s0.537-0.512,0.838-0.738s0.611-0.438,0.932-0.633c0.031-0.023,0.104-0.064,0.217-0.123s0.234-0.119,0.363-0.182
				s0.254-0.123,0.375-0.182s0.205-0.096,0.252-0.111c0.008-0.008,0.033-0.018,0.076-0.029s0.094-0.025,0.152-0.041
				s0.117-0.029,0.176-0.041s0.107-0.021,0.146-0.029c0.047-0.016,0.109-0.031,0.188-0.047s0.125-0.023,0.141-0.023h2.309
				c0.273,0.078,0.539,0.15,0.797,0.217s0.506,0.148,0.744,0.246s0.469,0.215,0.691,0.352s0.439,0.314,0.65,0.533h0.047
				c0-0.023,0.002-0.057,0.006-0.1s0.006-0.088,0.006-0.135s0.002-0.092,0.006-0.135s0.006-0.072,0.006-0.088
				c0-0.008,0.004-0.035,0.012-0.082s0.018-0.098,0.029-0.152s0.023-0.104,0.035-0.146s0.018-0.068,0.018-0.076
				c-0.039-0.055-0.043-0.111-0.012-0.17s0.076-0.107,0.135-0.146s0.123-0.064,0.193-0.076s0.129-0.002,0.176,0.029
				c0.391,0,0.734,0.002,1.031,0.006s0.586,0.012,0.867,0.023s0.572,0.033,0.873,0.064s0.646,0.07,1.037,0.117
				c0.023,0.016,0.062,0.037,0.117,0.064s0.082,0.061,0.082,0.1c0,0.07,0.004,0.156,0.012,0.258s0.016,0.209,0.023,0.322
				s0.016,0.223,0.023,0.328s0.008,0.197,0,0.275c0,0.016-0.004,0.062-0.012,0.141s-0.016,0.164-0.023,0.258
				s-0.016,0.18-0.023,0.258s-0.012,0.125-0.012,0.141c0,0.023-0.012,0.08-0.035,0.17s-0.035,0.143-0.035,0.158
				c0,0.023,0.002,0.072,0.006,0.146s0.006,0.152,0.006,0.234s0,0.16,0,0.234s-0.004,0.119-0.012,0.135
				c0,0.023-0.008,0.059-0.023,0.105s-0.031,0.082-0.047,0.105l-0.023,2.766v0.188c0,0.047,0,0.219,0,0.516s0.002,0.666,0.006,1.107
				s0.01,0.932,0.018,1.471s0.016,1.076,0.023,1.611s0.016,1.041,0.023,1.518s0.02,0.875,0.035,1.195
				c0,0.023-0.006,0.084-0.018,0.182s-0.023,0.205-0.035,0.322s-0.023,0.225-0.035,0.322s-0.014,0.158-0.006,0.182v0.094v0.094
				c-0.016,0.023-0.068,0.051-0.158,0.082s-0.143,0.055-0.158,0.07c-0.211,0-0.393,0.008-0.545,0.023s-0.297,0.033-0.434,0.053
				s-0.277,0.037-0.422,0.053s-0.322,0.02-0.533,0.012h-0.551c-0.055,0-0.146-0.002-0.275-0.006s-0.266-0.01-0.41-0.018
				s-0.281-0.016-0.41-0.023S131.809,42.742,131.754,42.734z M124.829,35.023c0,0.414,0.068,0.797,0.205,1.148
				s0.314,0.699,0.533,1.043c0.016,0.023,0.039,0.061,0.07,0.111s0.055,0.076,0.07,0.076c0.188,0.203,0.381,0.398,0.58,0.586
				s0.41,0.354,0.633,0.498s0.459,0.26,0.709,0.346s0.523,0.129,0.82,0.129c0.25,0,0.504-0.043,0.762-0.129s0.5-0.176,0.727-0.27
				c0.031-0.016,0.076-0.037,0.135-0.064s0.117-0.055,0.176-0.082s0.109-0.053,0.152-0.076s0.072-0.039,0.088-0.047
				c0.289-0.219,0.527-0.479,0.715-0.779s0.338-0.621,0.451-0.961s0.191-0.691,0.234-1.055s0.072-0.713,0.088-1.049
				c0-0.039-0.002-0.105-0.006-0.199s-0.01-0.191-0.018-0.293s-0.016-0.197-0.023-0.287s-0.016-0.15-0.023-0.182l-0.105-0.211
				c-0.031-0.062-0.062-0.121-0.094-0.176s-0.055-0.102-0.07-0.141c-0.156-0.297-0.314-0.584-0.475-0.861
				c-0.16-0.277-0.373-0.498-0.639-0.662c-0.062-0.047-0.133-0.1-0.211-0.158s-0.162-0.117-0.252-0.176s-0.178-0.113-0.264-0.164
				s-0.164-0.084-0.234-0.1c-0.031-0.008-0.088-0.023-0.17-0.047s-0.17-0.047-0.264-0.07s-0.182-0.043-0.264-0.059
				s-0.139-0.027-0.17-0.035c-0.047-0.07-0.117-0.111-0.211-0.123s-0.197-0.012-0.311,0s-0.225,0.029-0.334,0.053
				s-0.199,0.035-0.27,0.035c-0.117,0-0.242,0.021-0.375,0.064s-0.26,0.1-0.381,0.17s-0.238,0.148-0.352,0.234
				s-0.213,0.176-0.299,0.27c-0.016,0.016-0.049,0.055-0.1,0.117s-0.105,0.127-0.164,0.193s-0.115,0.131-0.17,0.193
				s-0.086,0.102-0.094,0.117c-0.297,0.328-0.504,0.715-0.621,1.16c-0.07,0.312-0.119,0.627-0.146,0.943
				S124.829,34.695,124.829,35.023z"/>
			<path fill="#4F9C44" d="M138.633,42.875l-0.68-0.059c-0.062,0.008-0.098,0.006-0.105-0.006s-0.016-0.037-0.023-0.076
				c-0.008-0.094-0.01-0.174-0.006-0.24s-0.002-0.146-0.018-0.24c-0.008-0.086-0.027-0.154-0.059-0.205s-0.051-0.111-0.059-0.182
				c-0.008-0.047-0.012-0.09-0.012-0.129s0.02-0.078,0.059-0.117c0.016-0.109,0.023-0.355,0.023-0.738s-0.008-0.846-0.023-1.389
				s-0.033-1.137-0.053-1.781s-0.041-1.287-0.064-1.928s-0.043-1.246-0.059-1.816s-0.023-1.055-0.023-1.453
				c0.008-0.078,0.004-0.182-0.012-0.311s-0.033-0.266-0.053-0.41s-0.037-0.283-0.053-0.416s-0.016-0.242,0-0.328
				c0-0.016-0.002-0.053-0.006-0.111s-0.01-0.1-0.018-0.123c-0.039,0-0.061-0.02-0.064-0.059s-0.01-0.078-0.018-0.117l-0.012-0.094
				l0.07-0.117c0.016-0.203,0.02-0.377,0.012-0.521s-0.02-0.314-0.035-0.51c0-0.031-0.002-0.07-0.006-0.117s-0.01-0.098-0.018-0.152
				s-0.012-0.117-0.012-0.188c0-0.016-0.014-0.051-0.041-0.105s-0.041-0.09-0.041-0.105s0.006-0.049,0.018-0.1
				s0.021-0.084,0.029-0.1c0-0.008,0-0.037,0-0.088s0.002-0.104,0.006-0.158s0.008-0.105,0.012-0.152s0.01-0.078,0.018-0.094
				l0.023-0.023c0.008-0.008,0.012-0.023,0.012-0.047c0.266-0.031,0.523-0.076,0.773-0.135s0.508-0.092,0.773-0.1
				c0.32-0.016,0.629-0.008,0.926,0.023s0.602,0.066,0.914,0.105c0.039,0.008,0.096,0.014,0.17,0.018s0.148,0.012,0.223,0.023
				s0.143,0.037,0.205,0.076s0.098,0.098,0.105,0.176c0.016,0.133,0.01,0.242-0.018,0.328s-0.033,0.199-0.018,0.34v0.035
				c0,0.016,0.002,0.027,0.006,0.035s0.006,0.016,0.006,0.023c0.055-0.023,0.125-0.057,0.211-0.1s0.176-0.088,0.27-0.135
				s0.186-0.092,0.275-0.135s0.158-0.076,0.205-0.1c0.016-0.008,0.061-0.031,0.135-0.07s0.123-0.066,0.146-0.082
				c0.016,0,0.061-0.01,0.135-0.029s0.115-0.037,0.123-0.053c0.07-0.047,0.158-0.094,0.264-0.141s0.213-0.092,0.322-0.135
				s0.209-0.08,0.299-0.111s0.146-0.055,0.17-0.07c0.195-0.078,0.395-0.125,0.598-0.141s0.414-0.027,0.633-0.035
				c0.352-0.023,0.711,0.004,1.078,0.082s0.721,0.186,1.061,0.322s0.648,0.293,0.926,0.469s0.502,0.35,0.674,0.521
				c0.055,0.062,0.115,0.139,0.182,0.229s0.129,0.184,0.188,0.281s0.109,0.193,0.152,0.287s0.068,0.18,0.076,0.258
				c0,0.047-0.023,0.107-0.07,0.182s-0.104,0.15-0.17,0.229s-0.133,0.148-0.199,0.211s-0.115,0.102-0.146,0.117
				c-0.008,0.008-0.027,0.023-0.059,0.047s-0.064,0.047-0.1,0.07s-0.07,0.047-0.105,0.07s-0.057,0.039-0.064,0.047
				c-0.031,0.023-0.076,0.057-0.135,0.1s-0.117,0.088-0.176,0.135s-0.113,0.09-0.164,0.129s-0.08,0.062-0.088,0.07
				c-0.133,0.102-0.26,0.211-0.381,0.328s-0.25,0.227-0.387,0.328c-0.137,0.102-0.281,0.188-0.434,0.258s-0.322,0.109-0.51,0.117
				h-0.234c-0.023-0.008-0.043-0.016-0.059-0.023c-0.023-0.008-0.051-0.02-0.082-0.035c-0.32-0.164-0.66-0.316-1.02-0.457
				c-0.359-0.141-0.719-0.207-1.078-0.199c-0.266,0.016-0.484,0.113-0.656,0.293c-0.172,0.18-0.332,0.367-0.48,0.562
				c-0.016,0.031-0.059,0.086-0.129,0.164s-0.113,0.137-0.129,0.176c-0.016,0.031-0.047,0.084-0.094,0.158s-0.096,0.154-0.146,0.24
				s-0.102,0.174-0.152,0.264s-0.084,0.162-0.1,0.217c-0.078,0.18-0.125,0.379-0.141,0.598s-0.031,0.426-0.047,0.621
				c-0.109,0.789-0.158,1.506-0.146,2.15s0.053,1.252,0.123,1.822c0.039,0.422,0.086,0.836,0.141,1.242s0.102,0.82,0.141,1.242
				c0.008,0.047,0.016,0.131,0.023,0.252s0.018,0.246,0.029,0.375s0.023,0.254,0.035,0.375s0.018,0.205,0.018,0.252
				c-0.016,0.008-0.029,0.016-0.041,0.023s-0.025,0.016-0.041,0.023l-0.047,0.023h-0.047h-0.023c-0.016,0-0.039-0.006-0.07-0.018
				s-0.055-0.025-0.07-0.041L138.633,42.875z"/>
		</g>
	</g>
</g>
</svg>
