<?xml version="1.0" encoding="utf-8"?>
<!-- Generator: Adobe Illustrator 25.4.1, SVG Export Plug-In . SVG Version: 6.00 Build 0)  -->
<svg version="1.1" id="Capa_1" xmlns="http://www.w3.org/2000/svg" xmlns:xlink="http://www.w3.org/1999/xlink" x="0px" y="0px"
	 viewBox="0 0 57.513 54.477" enable-background="new 0 0 57.513 54.477" xml:space="preserve">
<g>
	<g id="comment_chat_00000032628357637599448940000007198272646571263381_">
		<g>
			<g>
				<g>
					<g>
						<g>
							<path fill="#4AA147" d="M15.245,11.416c-0.061,0.304-0.066,0.829-0.077,1.327C15.227,12.36,15.252,11.953,15.245,11.416z"/>
							<polygon fill="#4AA147" points="15.168,12.752 15.168,12.76 15.169,12.743 							"/>
							<path fill="#4AA147" d="M17.895,10.911c0.003-0.05,0.019-0.104,0.034-0.158C17.912,10.803,17.894,10.857,17.895,10.911z"/>
							<path fill="#4AA147" d="M17.86,35.442l0.106-0.248c1.588-1.59,0.491-0.328,1.991-1.864c0.066-0.089,0.117-0.158,0.165-0.222
								c0.049-0.063,0.109-0.131,0.176-0.202c0.134-0.143,0.296-0.299,0.458-0.453c0.324-0.307,0.65-0.604,0.757-0.764
								c0.001,0.007,0.097-0.083,0.193-0.168c0.065-0.059,0.062-0.049,0.067-0.044c0.006,0.003,0.012,0.009,0.019,0.018
								c-0.026-0.038-0.014-0.047-0.004-0.05c0.01,0.004,0.019,0.009,0.026,0.001c0.005-0.021-0.008-0.023-0.023-0.046
								c0.012-0.005,0.019-0.009,0.039-0.014l0.386-0.014c0.302,0.025,0.376,0.07,0.048,0.079
								c2.016,0.028,11.693,0.102,13.865,0.063c-0.279-0.058-0.949-0.019-1.204-0.11c0.574-0.051,0.845,0.018,1.098-0.036
								c0.22,0.136,1.262,0.033,1.696,0.171l0.165-0.077l0.285,0.047c1.261-0.04,1.408-0.044,1.515-0.047
								c0.053,0.002,0.103,0.004,0.271,0.011c0.091-0.013,0.644,0.081,1.502-0.209c0.991-0.372,1.526-0.993,1.862-1.53
								c0.329-0.556,0.484-1.073,0.575-1.634c-0.023,0.171-0.146,0.599-0.08,0.08c0.018-0.02,0.045-0.116,0.05-0.254
								c0.009-0.148,0.008-0.323,0-0.417c-0.012-0.237-0.024-0.486,0.01-0.568c-0.009-0.329,0-1.393-0.092-1.033
								c0.046-0.181,0.065-1.131,0.105-0.565c0.003-0.32,0.016-0.631-0.004-0.862l-0.026,0.411
								c-0.013-1.082,0.058-1.672-0.026-2.377l-0.037,0.4c-0.006-0.647-0.013-1.188,0.079-1.442l0.028,0.664
								c-0.002-1.073-0.008-1.72-0.057-2.615l-0.003,0.319c-0.092-1.14-0.167-7.101-0.282-8.151l-0.071,0.484l-0.06-0.903
								c-0.001,0.107,0.231,0.436,0.208,0.525c0-0.121-0.001-0.274-0.002-0.454c-0.001-0.092-0.001-0.19-0.002-0.295
								c-0.009-0.15-0.008-0.311-0.039-0.478c-0.087-0.668-0.435-1.464-1.111-2.07c-0.335-0.302-0.75-0.553-1.219-0.709
								c-0.234-0.079-0.481-0.128-0.733-0.158l-0.374-0.018L39.89,7.614c-0.716,0.002-1.462,0.005-2.208,0.007
								c-2.982,0.009-5.945,0.01-6.838-0.014c-0.721-0.039-0.13-0.113-0.122-0.124c-0.877,0.027-0.379,0.075-1.125,0.069
								c-0.204-0.013,0.042-0.056,0.157-0.066c-0.327,0.008-0.63-0.016-0.655,0.017c0.409,0.026,0.236,0.114,0.409,0.171
								l-0.96-0.008l0.043-0.056c-0.214-0.002-0.543,0.152-1.485,0.122c-1.601-0.006-3.315-0.012-4.917-0.017
								c0.025-0.033,0.361-0.053,0.697-0.073c-0.214-0.002-0.541,0.007-0.739-0.017c0.386,0.059-0.671,0.039-0.369,0.064
								c-0.586,0.068-1.257,0.071-1.912,0.069c-0.327,0-0.649,0-0.956,0c-0.361-0.002-0.808,0.071-1.124,0.209
								c-0.054,0.059-0.585,0.87-0.506,1.606c0.029,0.751,0.529,1.17,0.585,1.173c-0.049,0.128-0.048,0.267-0.066,0.311
								c0.033-0.041,0.071-0.297,0.129-0.426l-0.059-0.057c0.166-0.308,0.066-0.059,0.287-0.302
								c0.052,0.035-0.165,0.239-0.226,0.478c0.075-0.213,0.265-0.335,0.288-0.443c0.183-0.099,0.029,0.065,0.241-0.027
								c0.067-0.044,0.149-0.096,0.249-0.119c0.07-0.015,0.054-0.019,0.204-0.023c0.133-0.001,0.265,0.002,0.392,0.012l-0.009,0.011
								c1.238,0.066,1.894-0.097,3.024-0.032l-0.122,0.021c0.4,0.037,1.187-0.013,1.908,0.027c-0.206-0.013-0.384-0.059,0.049-0.067
								c0.829,0.04,1.395,0,2.001,0.05l0.582-0.063c1.443-0.006,5.013-0.02,8.589-0.035c1.738-0.009,3.476-0.018,4.956-0.026
								c0.327,0.033,0.599,0.218,0.747,0.434c0.149,0.223,0.187,0.42,0.189,0.613c-0.003-0.047-0.01-0.042-0.014-0.065
								c0.01,2.199,0.024,5.551,0.039,8.923c0.009,1.694,0.019,3.393,0.027,4.956c0.007,0.78,0.015,1.526,0.021,2.22
								c0.002,0.173,0.004,0.343,0.006,0.51c-0.001,0.11-0.004,0.167-0.015,0.248c-0.024,0.149-0.077,0.286-0.149,0.404
								c-0.241,0.265-0.605,0.498-1.021,0.459c0.158,0.008,0.146,0.024,0.15,0.038c-0.035,0.011-0.01,0.032-0.201,0.029
								c-2.245-0.007-0.151,0.043-2.422,0.069c-2.614,0.057-12.618-0.008-14.939-0.06c-0.252,0.012-0.489,0.024-0.73,0.036
								c-0.417,0.005-0.832,0.009-1.252,0.014c-0.42,0.422-0.844,0.848-1.258,1.263c-0.301,0.303-0.589,0.6-0.846,0.883l0.072-0.102
								c-0.114,0.116-0.338,0.344-0.63,0.641c-0.126,0.121-0.279,0.269-0.44,0.424c0.006-0.282,0.013-0.578,0.019-0.829
								c-0.002-1.052-0.004-1.908-0.005-2.328l-0.013,0.205c-0.056-1.329,0.043-1.148,0.074-2.196
								c-0.102,0.138-0.16-1.001-0.167-1.436l0.022,0.016c-0.017-0.655-0.106-2.139-0.119-3.221l0.056,0.042
								c-0.06-0.902-0.035-2.598-0.041-3.247c0.023-1.483,0.12-3.77,0.046-5.753l0.159-1.281l-0.016-0.188
								c0,0-1.917-2.063-2.326,0.556l-0.056-0.042l0.007,0.518c-0.027,0.621,0.037,0.909-0.018,0.866l0.007-0.851
								c-0.016,0.624-0.046,0.188-0.077-0.05c-0.005,0.261-0.012,0.514-0.029,0.721c0.021,0.123,0.023-0.09,0.035-0.188
								c0.02,0.336,0.072,0.803,0.046,1.212c-0.005,0.639-0.09,0.041-0.096,0.787c-0.043,3.933-0.107,7.744-0.095,11.72
								c-0.023,0.09-0.022-0.017-0.033-0.132c0.014,1.207,0.027,2.249,0.04,3.353c-0.025,0.303-0.059,0.386-0.082,0.475
								c0.007-0.028,0.013,0.098,0.019,0.332c0.003,0.445,0.008,1.085,0.013,1.838c0.003,1.58,0.008,3.63,0.012,5.418
								C16.539,36.76,17.788,35.514,17.86,35.442z"/>
						</g>
					</g>
				</g>
			</g>
		</g>
		<g>
			<circle fill="#4AA147" cx="23.572" cy="22.915" r="1.186"/>
			<g>
				<g>
					<g>
						<g>
							<path fill="#4AA147" d="M23.55,22.915c0.014,0.001,0.018,0.001,0.018,0.001C23.555,22.916,23.55,22.915,23.55,22.915z"/>
							<path fill="#4AA147" d="M26.179,22.855c-0.002-0.021-0.004-0.043-0.007-0.067C26.172,22.81,26.172,22.833,26.179,22.855z"/>
							<path fill="#4AA147" d="M23.572,22.904l0,0.001l-0.001,0.012c-0.002,0.009,0,0.002-0.002,0.007l0.001-0.002l0,0l0,0
								l0.001-0.002l0,0c0.016-0.018-0.005-0.002-0.005-0.002l-0.001,0l0.001,0c0.006-0.001,0.001,0,0.007-0.001l0.001,0l0.001,0
								c0.022-0.002,0.03-0.001,0.011-0.001c0,0-0.012-0.001-0.021-0.002v0l-0.002-0.001l0.002,0.001l0,0l0.003,0.001l-0.001-0.001
								c0,0-0.002-0.001,0.006,0.004l-0.001,0l0.003,0.002l-0.002-0.002l0.004,0.003l0,0c0.018,0.029-0.043-0.044-0.057-0.168
								l-0.028-0.065l-0.004-0.062c0,0,0.048,0.178,0.054,0.2c-0.006-0.014,0.1-0.062,0.085-0.002
								c-0.019,0.029-0.053,0.083-0.058,0.091c0,0,0.037-0.054,0.032-0.042c-0.007,0.009-0.028,0.038-0.034,0.045
								c0,0-0.006,0.007,0.005-0.006c0.016-0.021,0.069-0.09,0.104-0.136c0,0,0.004,0.007,0.004,0.012l-0.037,0.042
								c0,0,0.106-0.111,0.096-0.077c0,0.032,0.027,0.042,0.026,0.068c-0.031,0.012-0.049,0.019-0.067,0.026
								c0,0,0.007,0.002-0.014,0.014c0.051-0.029,0.039-0.011,0.06-0.024c0.134-0.037,0.023,0.028,0.116,0.022
								c0.06-0.012,0.579-0.098,1.112-0.106c0.532-0.016,1.066,0.046,1.139,0.043c0,0.052-0.001,0.103-0.013,0.119
								c0.034-0.013,0.047-0.117,0.024-0.17l-0.078-0.004c-0.036-0.119,0.047-0.032,0.026-0.152
								c0.063-0.015,0.092,0.097,0.101,0.197c0.004-0.09,0.041-0.188-0.035-0.215c0.014-0.089,0.079-0.001,0.09-0.11
								c-0.029-0.073-0.114-0.154-0.099-0.246l0.011-0.001c0.004-0.226-0.189-0.273-0.211-0.467l0.028,0.009
								c0.005-0.079-0.103-0.172-0.136-0.296c0.008,0.037-0.016,0.086-0.06,0.029c-0.044-0.138-0.134-0.189-0.161-0.298
								l-0.112-0.031c-0.147-0.184-0.623-0.575-1.204-0.707c-0.577-0.154-1.153-0.032-1.373,0.041l0.015-0.014
								c-0.341,0.098-0.842,0.349-1.19,0.763c-0.36,0.402-0.537,0.94-0.541,1.293c-0.081,0.099-0.076,0.254-0.096,0.368
								c0.028-0.064,0.071-0.04,0.067,0.008c0.011,0.341,0.033,0.024,0.097,0.358c0.052,0.187,0.166,0.65,0.439,1.028
								c0.255,0.39,0.646,0.661,0.794,0.76c0.205,0.007,0.404,0.142,0.597,0.127l-0.022,0.017c0.099,0.005,0.417,0.077,0.748,0.05
								c0.332-0.017,0.66-0.134,0.754-0.201l-0.033,0.001c0.154-0.136,0.173-0.036,0.328-0.094
								c-0.069-0.074,0.037-0.214,0.079-0.259l0.012,0.019c0.069-0.07,0.164-0.277,0.247-0.397l0.038,0.041
								c0.041-0.131,0.188-0.31,0.226-0.394c0.12-0.16,0.334-0.45,0.296-0.746c0.062-0.053,0.12-0.109,0.176-0.171l-0.014-0.029
								c0,0-0.476-0.095-1.006-0.105c-0.529-0.019-1.114,0.023-1.317,0.004l-0.042-0.003l0.007,0.001c0,0-0.001,0,0.005,0.001
								l-0.005-0.001l0,0l0.004,0l-0.001,0l0.008,0.001l0.001,0c0,0-0.022-0.017-0.009-0.003l0,0l0.004,0.008l0,0.001
								C23.576,22.948,23.571,22.865,23.572,22.904z"/>
						</g>
					</g>
				</g>
			</g>
		</g>
		<g>
			<circle fill="#4AA147" cx="29.501" cy="22.915" r="1.186"/>
			<g>
				<g>
					<g>
						<g>
							<path fill="#4AA147" d="M29.479,22.915c0.014,0.001,0.018,0.001,0.018,0.001C29.483,22.916,29.479,22.915,29.479,22.915z"/>
							<path fill="#4AA147" d="M32.107,22.855c-0.002-0.021-0.004-0.043-0.007-0.067C32.1,22.81,32.101,22.833,32.107,22.855z"/>
							<path fill="#4AA147" d="M29.501,22.904l0,0.001l-0.001,0.012c-0.002,0.009,0,0.002-0.002,0.007l0.001-0.002l0,0l0,0
								l0.001-0.002l0,0c0.016-0.018-0.005-0.002-0.005-0.002l-0.001,0l0.001,0c0.006-0.001,0.001,0,0.007-0.001l0.001,0l0.001,0
								c0.022-0.002,0.03-0.001,0.011-0.001c0,0-0.012-0.001-0.021-0.002v0l-0.002-0.001l0.002,0.001l0,0l0.003,0.001l-0.001-0.001
								c0,0-0.002-0.001,0.006,0.004l-0.001,0l0.003,0.002l-0.002-0.002l0.004,0.003l0,0c0.018,0.029-0.043-0.044-0.057-0.168
								l-0.028-0.065l-0.004-0.062c0,0,0.048,0.178,0.054,0.2c-0.006-0.014,0.1-0.062,0.085-0.002
								c-0.019,0.029-0.053,0.083-0.058,0.091c0,0,0.037-0.054,0.032-0.042c-0.007,0.009-0.028,0.038-0.034,0.045
								c0,0-0.006,0.007,0.005-0.006c0.016-0.021,0.069-0.09,0.104-0.136c0,0,0.004,0.007,0.004,0.012l-0.037,0.042
								c0,0,0.106-0.111,0.096-0.077c0,0.032,0.027,0.042,0.026,0.068c-0.031,0.012-0.049,0.019-0.067,0.026
								c0,0,0.007,0.002-0.014,0.014c0.051-0.029,0.039-0.011,0.06-0.024c0.134-0.037,0.023,0.028,0.116,0.022
								c0.06-0.012,0.579-0.098,1.112-0.106c0.532-0.016,1.066,0.046,1.139,0.043c0,0.052-0.001,0.103-0.013,0.119
								c0.034-0.013,0.047-0.117,0.024-0.17l-0.078-0.004C31.937,22.623,32.02,22.709,32,22.59c0.063-0.015,0.092,0.097,0.101,0.197
								c0.004-0.09,0.041-0.188-0.035-0.215c0.014-0.089,0.079-0.001,0.09-0.11c-0.029-0.073-0.114-0.154-0.099-0.246l0.011-0.001
								c0.004-0.226-0.189-0.273-0.211-0.467l0.028,0.009c0.005-0.079-0.103-0.172-0.136-0.296c0.008,0.037-0.016,0.086-0.06,0.029
								c-0.044-0.138-0.134-0.189-0.161-0.298l-0.112-0.031c-0.147-0.184-0.623-0.575-1.204-0.707
								c-0.577-0.154-1.153-0.032-1.373,0.041l0.015-0.014c-0.341,0.098-0.842,0.349-1.19,0.763c-0.36,0.402-0.537,0.94-0.541,1.293
								c-0.081,0.099-0.076,0.254-0.096,0.368c0.028-0.064,0.071-0.04,0.067,0.008c0.011,0.341,0.033,0.024,0.097,0.358
								c0.052,0.187,0.166,0.65,0.439,1.028c0.255,0.39,0.646,0.661,0.794,0.76c0.205,0.007,0.404,0.142,0.597,0.127l-0.022,0.017
								c0.099,0.005,0.417,0.077,0.748,0.05c0.332-0.017,0.66-0.134,0.754-0.201l-0.033,0.001c0.154-0.136,0.173-0.036,0.328-0.094
								c-0.069-0.074,0.037-0.214,0.079-0.259l0.012,0.019c0.069-0.07,0.164-0.277,0.247-0.397l0.038,0.041
								c0.041-0.131,0.188-0.31,0.226-0.394c0.12-0.16,0.334-0.45,0.296-0.746c0.062-0.053,0.12-0.109,0.176-0.171l-0.014-0.029
								c0,0-0.476-0.095-1.006-0.105c-0.529-0.019-1.114,0.023-1.317,0.004l-0.042-0.003l0.007,0.001c0,0-0.001,0,0.005,0.001
								l-0.005-0.001l0,0l0.004,0l-0.001,0l0.008,0.001l0.001,0c0,0-0.022-0.017-0.009-0.003l0,0l0.004,0.008l0,0.001
								C29.504,22.948,29.5,22.865,29.501,22.904z"/>
						</g>
					</g>
				</g>
			</g>
		</g>
		<g>
			<circle fill="#4AA147" cx="35.429" cy="22.915" r="1.186"/>
			<g>
				<g>
					<g>
						<g>
							<path fill="#4AA147" d="M35.407,22.915c0.014,0.001,0.018,0.001,0.018,0.001C35.412,22.916,35.407,22.915,35.407,22.915z"/>
							<path fill="#4AA147" d="M38.036,22.855c-0.002-0.021-0.004-0.043-0.007-0.067C38.029,22.81,38.029,22.833,38.036,22.855z"/>
							<path fill="#4AA147" d="M35.429,22.904l0,0.001l-0.001,0.012c-0.002,0.009,0,0.002-0.002,0.007l0.001-0.002l0,0l0,0
								l0.001-0.002l0,0c0.016-0.018-0.005-0.002-0.005-0.002l-0.001,0l0.001,0c0.006-0.001,0.001,0,0.007-0.001l0.001,0l0.001,0
								c0.022-0.002,0.03-0.001,0.011-0.001c0,0-0.012-0.001-0.021-0.002v0l-0.002-0.001l0.002,0.001l0,0l0.003,0.001l-0.001-0.001
								c0,0-0.002-0.001,0.006,0.004l-0.001,0l0.003,0.002l-0.002-0.002l0.004,0.003l0,0c0.018,0.029-0.043-0.044-0.057-0.168
								l-0.028-0.065l-0.004-0.062c0,0,0.048,0.178,0.054,0.2c-0.006-0.014,0.1-0.062,0.085-0.002
								c-0.019,0.029-0.053,0.083-0.058,0.091c0,0,0.037-0.054,0.032-0.042c-0.007,0.009-0.028,0.038-0.034,0.045
								c0,0-0.006,0.007,0.005-0.006c0.016-0.021,0.069-0.09,0.104-0.136c0,0,0.004,0.007,0.004,0.012l-0.037,0.042
								c0,0,0.106-0.111,0.096-0.077c0,0.032,0.027,0.042,0.026,0.068c-0.031,0.012-0.049,0.019-0.067,0.026
								c0,0,0.007,0.002-0.014,0.014c0.051-0.029,0.039-0.011,0.06-0.024c0.134-0.037,0.023,0.028,0.116,0.022
								c0.06-0.012,0.579-0.098,1.112-0.106c0.532-0.016,1.066,0.046,1.139,0.043c0,0.052-0.001,0.103-0.013,0.119
								c0.034-0.013,0.047-0.117,0.024-0.17l-0.078-0.004c-0.036-0.119,0.047-0.032,0.026-0.152
								c0.063-0.015,0.092,0.097,0.101,0.197c0.004-0.09,0.041-0.188-0.035-0.215c0.014-0.089,0.079-0.001,0.09-0.11
								c-0.029-0.073-0.114-0.154-0.099-0.246l0.011-0.001c0.004-0.226-0.189-0.273-0.211-0.467l0.028,0.009
								c0.005-0.079-0.103-0.172-0.136-0.296c0.008,0.037-0.016,0.086-0.06,0.029c-0.044-0.138-0.134-0.189-0.161-0.298
								l-0.112-0.031c-0.147-0.184-0.623-0.575-1.204-0.707c-0.577-0.154-1.153-0.032-1.373,0.041l0.015-0.014
								c-0.341,0.098-0.842,0.349-1.19,0.763c-0.36,0.402-0.537,0.94-0.541,1.293c-0.081,0.099-0.076,0.254-0.096,0.368
								c0.028-0.064,0.071-0.04,0.067,0.008c0.011,0.341,0.033,0.024,0.097,0.358c0.052,0.187,0.166,0.65,0.439,1.028
								c0.255,0.39,0.646,0.661,0.794,0.76c0.205,0.007,0.404,0.142,0.597,0.127l-0.022,0.017c0.099,0.005,0.417,0.077,0.748,0.05
								c0.332-0.017,0.66-0.134,0.754-0.201l-0.033,0.001c0.154-0.136,0.173-0.036,0.328-0.094
								c-0.069-0.074,0.037-0.214,0.079-0.259l0.012,0.019c0.069-0.07,0.164-0.277,0.247-0.397l0.038,0.041
								c0.041-0.131,0.188-0.31,0.226-0.394c0.12-0.16,0.334-0.45,0.296-0.746c0.062-0.053,0.12-0.109,0.176-0.171l-0.014-0.029
								c0,0-0.476-0.095-1.006-0.105c-0.529-0.019-1.114,0.023-1.317,0.004l-0.042-0.003l0.007,0.001c0,0-0.001,0,0.005,0.001
								l-0.005-0.001l0,0l0.004,0l-0.001,0l0.007,0.001l0.001,0c0,0-0.022-0.017-0.009-0.003l0,0l0.004,0.008l0,0.001
								C35.432,22.948,35.428,22.865,35.429,22.904z"/>
						</g>
					</g>
				</g>
			</g>
		</g>
	</g>
</g>
<rect x="-1.985" y="42.265" fill="none" width="62.971" height="13.901"/>
<text transform="matrix(1 0 0 1 10.0131 50.267)" fill="#4AA147" font-family="'YanoneKaffeesatz-Bold'" font-size="10.8873px">CONSULTAS</text>
</svg>
