<?xml version="1.0" encoding="utf-8"?>
<!-- Generator: Adobe Illustrator 25.4.1, SVG Export Plug-In . SVG Version: 6.00 Build 0)  -->
<svg version="1.1" id="Capa_1" xmlns="http://www.w3.org/2000/svg" xmlns:xlink="http://www.w3.org/1999/xlink" x="0px" y="0px"
	 viewBox="0 0 57.513 54.477" enable-background="new 0 0 57.513 54.477" xml:space="preserve">
<rect x="-2.353" y="41.904" fill="none" width="62.971" height="13.901"/>
<text transform="matrix(1 0 0 1 5.8356 49.9068)" fill="#4AA147" font-family="'YanoneKaffeesatz-Bold'" font-size="10.8873px">ESTADÍSTICAS</text>
<g>
	<g>
		<g>
			<g>
				<g>
					<g>
						<path fill="#4AA147" d="M36.496,27.983c-0.183,0.09-0.442,0.303-0.696,0.492C36.026,28.369,36.246,28.222,36.496,27.983z"/>
						<polygon fill="#4AA147" points="35.794,28.479 35.79,28.482 35.799,28.476 						"/>
						<path fill="#4AA147" d="M38.168,27.435c-0.073-0.05-0.157-0.108-0.242-0.166C38.005,27.327,38.086,27.385,38.168,27.435z"/>
						<path fill="#4AA147" d="M21.689,28.131l-0.102,0.047c-0.574-0.479-0.089-0.227-0.607-0.678
							c-0.318-0.068-0.758-0.852-0.971-0.982c0,0-0.194-0.269-0.14-0.282c-0.12-0.039-0.211-0.275-0.348-0.437
							c-0.062-0.051,0.013,0.059,0.027,0.12l-0.303-0.386c-0.071-0.181-0.054-0.245,0.052-0.068
							c-0.319-0.544-1.175-2.206-1.464-4.049c-0.3-1.837-0.012-3.698,0.151-4.355c-0.103,0.157-0.156,0.576-0.257,0.722
							c-0.008-0.371,0.118-0.522,0.099-0.69c0.157-0.106,0.216-0.772,0.451-0.985l-0.041-0.123l0.1-0.155
							c0.245-0.755,0.294-0.837,0.316-0.901c0.027-0.063,0.049-0.104,0.395-0.718c0.392-0.711,0.522-1.101,0.84-1.435
							c-0.042,0.053-0.192,0.168-0.076-0.012c0.078,0.015,0.306-0.485,0.431-0.517c0.136-0.158,0.601-0.652,0.379-0.547
							c0.101-0.066,0.564-0.457,0.326-0.185c0.153-0.135,0.307-0.258,0.402-0.372L21.138,11.3c0.488-0.493,0.855-0.63,1.155-0.981
							l-0.224,0.126c0.081-0.064,0.159-0.125,0.231-0.182c0.025-0.016,0.049-0.03,0.073-0.039c0.046-0.019,0.087-0.019,0.116,0.016
							l-0.083,0.086c0.067-0.044,0.139-0.093,0.175-0.123c0.028-0.024,0.057-0.055,0.109-0.111l-0.027,0.011
							c0.013-0.012,0.053-0.071,0.069-0.058c0.016,0.014,0.034,0.04,0.055,0.075c0.053,0.107,0.052,0.025,0.301,0.822
							c0.385,1.193,0.77,2.377,0.927,2.72l-0.025-0.351l0.232,0.6c-0.02-0.073-0.306-0.233-0.301-0.301
							c0.191,0.66,0.784,2.708,1.373,4.742c0.291,1.019,0.581,2.034,0.82,2.871c0.11,0.3,0.146,0.72,0.327,0.957
							c0.257,0.184,0.495,0.353,0.711,0.507c0.255,0.187,0.454,0.334,0.585,0.43c0.394,0.327,0.01,0.145-0.001,0.151
							c0.522,0.337,0.262,0.093,0.69,0.403c0.11,0.094-0.057,0.028-0.129-0.01c0.194,0.127,0.355,0.271,0.388,0.254
							c-0.221-0.188-0.07-0.189-0.137-0.307l0.55,0.399l-0.057,0.028c0.123,0.089,0.403,0.098,0.93,0.508
							c0.929,0.664,1.909,1.364,2.833,2.025c-0.034,0.017-0.24-0.105-0.447-0.227c0.123,0.089,0.317,0.216,0.417,0.316
							c-0.188-0.205,0.412,0.243,0.252,0.1c0.76,0.37,1.561,1.089,2.215,1.439c0.124-0.063,2.577-0.752,2.67-0.864
							c0.186,0.135,0.371,0.269,0.421,0.319c-0.027-0.061-0.386-0.335-0.594-0.458l-0.082,0.038
							c-0.468-0.298-0.077-0.111-0.521-0.419c0.016-0.067,0.429,0.209,0.79,0.457c-0.317-0.233-0.608-0.497-0.782-0.534
							c-0.286-0.235,0.082-0.038-0.266-0.317c-0.271-0.169-0.649-0.36-0.924-0.601l0.012-0.005
							c-0.684-0.565-1.166-0.707-1.788-1.226l0.084,0.033c-0.212-0.195-0.702-0.481-1.1-0.811c0.113,0.095,0.19,0.207-0.068,0.033
							c-0.461-0.375-0.816-0.577-1.141-0.868l-0.377-0.19c-0.423-0.298-1.157-0.813-2.048-1.44
							c-0.223-0.156-0.456-0.318-0.697-0.486l-0.31-0.215l-0.027-0.014l-0.013-0.03l-0.113-0.383
							c-0.089-0.303-0.178-0.608-0.268-0.914c-0.716-2.446-1.432-4.893-1.722-5.884l0.032,0.075
							c-0.22-0.757-0.497-1.712-0.804-2.767c-0.193-0.673-0.396-1.378-0.604-2.1c-0.145-0.531-0.305-1.043-0.474-1.545l-0.248-0.763
							c-0.002-0.05-0.034-0.033-0.066-0.012l-0.092,0.048l-0.183,0.096L23.574,6.64c-1.011,0.5-1.885,1.039-2.738,1.553
							c-0.518,0.398-1.029,0.783-1.463,1.217c-0.893,0.837-1.58,1.724-2.05,2.48c-0.369,0.418-0.726,1.095-1.002,1.602
							c0.173-0.272,0.16-0.155,0.042,0.064c-0.684,1.61-0.061,0.107-0.632,1.776c-0.298,0.955-0.899,3.389-0.571,5.81
							c0.221,2.425,1.258,4.646,1.729,5.411c0.256,0.414,0.61,0.833,0.909,1.285c0.33,0.429,0.687,0.837,1.021,1.172
							c-0.027-0.018-0.057-0.033-0.082-0.054c0.372,0.341,1.543,1.596,3.043,2.457c1.464,0.919,3.159,1.399,3.729,1.543l-0.15-0.058
							c1.019,0.166,0.86,0.243,1.664,0.396c-0.092-0.111,0.792-0.083,1.125-0.061l-0.014,0.021c0.51-0.002,1.651-0.095,2.469-0.233
							l-0.025,0.059c0.68-0.141,1.953-0.403,2.42-0.579c1.089-0.305,2.755-0.984,3.935-1.973c0.294-0.156,0.587-0.319,0.873-0.497
							l0.1-0.108c0,0-0.022-0.627-0.293-1.1c-0.271-0.485-0.747-0.798-1.518-0.412l-0.015-0.06l-0.255,0.215
							c-0.331,0.224-0.45,0.376-0.458,0.317c0.151-0.103,0.298-0.21,0.443-0.32c-0.328,0.231-0.123,0.037-0.022-0.08
							c-0.136,0.096-0.267,0.191-0.385,0.252c-0.051,0.063,0.06-0.015,0.118-0.041c-0.161,0.142-0.378,0.358-0.614,0.476
							c-0.351,0.211-0.067-0.057-0.479,0.178c-2.196,1.208-4.703,1.601-7.177,1.297c-0.053-0.028,0.014-0.021,0.087-0.025
							c-0.749-0.085-1.401-0.247-2.063-0.438c-0.177-0.074-0.212-0.129-0.256-0.173c0.051,0.029-0.855-0.262-1.701-0.742
							c-0.421-0.239-0.829-0.514-1.133-0.729C21.9,28.303,21.709,28.147,21.689,28.131z"/>
					</g>
				</g>
			</g>
		</g>
	</g>
	<g>
		<g>
			<g>
				<g>
					<g>
						<path fill="#4AA147" d="M41.273,25.269c0.13-0.121,0.272-0.376,0.393-0.625C41.527,24.815,41.405,25.004,41.273,25.269z"/>
						<polygon fill="#4AA147" points="41.67,24.639 41.671,24.635 41.666,24.644 						"/>
						<path fill="#4AA147" d="M40.752,23.58c-0.053-0.034-0.113-0.073-0.174-0.112C40.634,23.508,40.693,23.548,40.752,23.58z"/>
						<path fill="#4AA147" d="M40.753,11.669l-0.108,0.018c-0.365-0.554,0.008-0.238-0.377-0.722
							c-0.266-0.101-0.598-0.835-0.82-0.929c0.012-0.004-0.19-0.229-0.144-0.245c-0.12-0.016-0.225-0.216-0.369-0.343
							c-0.062-0.035,0.018,0.053,0.037,0.107c-0.106-0.099-0.207-0.203-0.324-0.29c-0.109-0.132-0.109-0.194,0.034-0.075
							c-0.398-0.404-1.64-1.537-3.146-2.296c-1.487-0.787-3.148-1.191-3.76-1.253c0.145,0.086,0.527,0.119,0.648,0.236
							c-0.328-0.011-0.464-0.107-0.614-0.08c-0.098-0.167-0.693-0.157-0.924-0.304l-0.101,0.068L30.63,5.498
							c-0.717-0.037-0.79,0.01-0.862-0.003c-0.096,0.013-0.216-0.054-1.303,0.001c-1.232,0.129-1.782,0.225-2.401,0.314
							c-0.02-0.035,0.006-0.044,0.056-0.036c0.03,0.003,0.069,0.006,0.11,0.01c0.057,0.01,0.065,0.026-0.078,0.047
							c-0.104-0.027,0.242,0.818,0.187,0.91c0.072,0.292,0.314,1.247,0.334,0.95c-0.008,0.144,0.214,1.013,0.028,0.493
							c0.079,0.294,0.146,0.585,0.225,0.794l-0.079-0.38c0.065,0.236,0.12,0.438,0.173,0.631c0.025,0.106,0.049,0.206,0.071,0.296
							c0.045,0.182,0.092,0.34,0.18,0.5l-0.019-0.205c0.093,0.314,0.174,0.576,0.12,0.725l-0.117-0.317
							c0.148,0.523,0.242,0.837,0.41,1.26l-0.041-0.156c0.243,0.531,1.125,3.419,1.378,3.9l0.003-0.255l0.18,0.424
							c-0.014-0.052-0.282-0.151-0.272-0.201c0.165,0.578,0.718,2.514,1.219,4.267c0.67,0.447,1.312,0.876,1.837,1.226
							c0.43,0.29,0.762,0.519,0.922,0.639c0.282,0.236-0.008,0.13-0.018,0.137c0.384,0.225,0.201,0.044,0.512,0.259
							c0.079,0.068-0.049,0.035-0.103,0.011c0.142,0.085,0.256,0.191,0.285,0.17c-0.158-0.137-0.036-0.161-0.077-0.258l0.4,0.276
							l-0.049,0.034c0.089,0.062,0.313,0.026,0.693,0.316c0.684,0.464,1.386,0.941,2.06,1.398c-0.029,0.021-0.181-0.057-0.334-0.136
							c0.089,0.062,0.232,0.147,0.301,0.222c-0.13-0.158,0.304,0.156,0.191,0.051c0.569,0.216,1.137,0.746,1.624,0.961
							c0.106-0.076,2.102-1.126,2.183-1.247c0.134,0.093,0.267,0.185,0.301,0.222c-0.016-0.052-0.272-0.243-0.424-0.321
							l-0.068,0.049c-0.34-0.194-0.05-0.089-0.37-0.297c0.019-0.064,0.318,0.119,0.578,0.286c-0.227-0.161-0.432-0.354-0.565-0.359
							c-0.203-0.167,0.068-0.049-0.179-0.247c-0.197-0.109-0.477-0.221-0.67-0.396l0.01-0.007c-0.484-0.403-0.851-0.452-1.29-0.825
							l0.063,0.017c-0.148-0.143-0.506-0.323-0.788-0.559c0.079,0.069,0.129,0.157-0.058,0.042
							c-0.327-0.267-0.587-0.393-0.814-0.604l-0.28-0.112c-0.352-0.233-1-0.662-1.763-1.166c-0.382-0.249-0.791-0.516-1.204-0.786
							l-0.62-0.404l-0.141-0.091l-0.015-0.007l-0.031-0.015c-0.405-1.384-0.742-2.537-0.892-3.05l0.025,0.053
							c-0.31-1.08-0.779-2.716-1.252-4.366c-0.213-0.731-0.427-1.463-0.624-2.14c-0.026-0.064-0.05-0.125-0.073-0.183
							c-0.006-0.027-0.042-0.074-0.025-0.085l0.067-0.021c0.115,0.053,0.19,0.036,0.227,0.056c-0.023-0.026-0.03-0.07-0.005-0.067
							c0.171-0.001,0.258-0.002,0.309-0.002c0.071,0.003,0.08-0.002,0.09-0.009c0.02-0.013,0.04-0.029,0.561,0.008
							c0.596,0.022,2.051,0.264,3.335,0.9c1.296,0.607,2.387,1.518,2.735,1.914c0.483,0.315,0.919,0.888,1.292,1.304l-0.051-0.032
							c0.199,0.223,0.798,1.037,1.213,1.969c0.442,0.918,0.711,1.921,0.825,2.255l-0.014-0.094c0.207,0.587,0.092,0.531,0.154,1.01
							c0.094-0.083,0.237,0.429,0.271,0.629l-0.023-0.005c0.053,0.297,0.214,0.976,0.211,1.478l-0.056-0.02
							c0.064,0.417-0.027,1.197-0.079,1.49c-0.117,0.678-0.49,1.656-0.795,2.525c-0.134,0.158-0.258,0.318-0.397,0.469l-0.026,0.084
							c0,0,0.317,0.431,0.739,0.77c0.421,0.333,0.963,0.567,1.471,0.01l0.04,0.045l0.114-0.263c0.172-0.3,0.166-0.477,0.21-0.433
							c-0.06,0.147-0.128,0.289-0.196,0.43c0.159-0.308,0.086-0.077,0.058,0.057c0.061-0.113,0.116-0.216,0.191-0.356
							c0.006-0.072-0.04,0.038-0.072,0.083c0.053-0.182,0.106-0.441,0.211-0.645c0.125-0.336,0.092,0.01,0.239-0.384
							c0.761-2.089,0.937-4.38,0.486-6.552c0.013-0.054,0.024,0.005,0.046,0.066c-0.14-0.656-0.292-1.224-0.502-1.801
							c-0.026-0.169-0.008-0.225-0.001-0.28c0.009,0.051-0.293-0.742-0.651-1.532c-0.202-0.386-0.405-0.775-0.56-1.072
							C40.883,11.879,40.769,11.694,40.753,11.669z"/>
					</g>
				</g>
			</g>
		</g>
	</g>
</g>
</svg>
