<?xml version="1.0" encoding="utf-8"?>
<!-- Generator: Adobe Illustrator 25.4.1, SVG Export Plug-In . SVG Version: 6.00 Build 0)  -->
<svg version="1.1" id="Capa_1" xmlns="http://www.w3.org/2000/svg" xmlns:xlink="http://www.w3.org/1999/xlink" x="0px" y="0px"
	 viewBox="0 0 57.513 63.737" enable-background="new 0 0 57.513 63.737" xml:space="preserve">
<rect x="14.691" y="51.008" fill="none" width="28.663" height="13.901"/>
<text transform="matrix(1 0 0 1 19.7149 59.0093)" fill="#4AA147" font-family="'YanoneKaffeesatz-Bold'" font-size="10.8873px">FICHA</text>
<g>
	<g>
		<g>
			<g>
				<g>
					<g>
						<g>
							<path fill="#4AA147" d="M40.832,43.704c-0.082,0.162-0.206,0.427-0.423,0.601C40.605,44.212,40.779,44.011,40.832,43.704z"/>
							<polygon fill="#4AA147" points="40.405,44.307 40.402,44.311 40.409,44.305 							"/>
							<path fill="#4AA147" d="M43.488,43.057c-0.001-0.148-0.002-0.316-0.004-0.487L43.488,43.057z"/>
							<path fill="#4AA147" d="M17.445,41.59l-0.1-0.09c-0.001-1.405,0.115-0.409,0.09-1.708c-0.142-0.508,0.015-2.157-0.061-2.606
								c0.011,0.01,0.016-0.626,0.06-0.585c-0.077-0.195-0.018-0.654-0.038-1.055c-0.021-0.145-0.023,0.107-0.046,0.215
								l-0.027-0.919c0.025-0.359,0.07-0.448,0.079-0.057c0.028-2.401,0.102-13.928,0.063-16.515
								c-0.058,0.332-0.019,1.131-0.11,1.434c-0.051-0.684,0.018-1.007-0.036-1.308c0.136-0.262,0.033-1.503,0.171-2.021
								l-0.077-0.196l0.047-0.34c-0.04-1.503-0.044-1.677-0.047-1.805c0.002-0.063,0.004-0.121,0.011-0.323
								c0.015-0.191-0.001-0.26,0.119-0.512c0.135-0.265,0.327-0.419,0.502-0.502c0.09-0.037,0.178-0.072,0.27-0.075
								c0.109-0.012,0.391-0.006,0.583,0.002c-0.128-0.001-0.468-0.048-0.068-0.068c0.068,0.068,1.064-0.049,1.259,0.02
								c0.391-0.009,1.66,0,1.231-0.092c0.215,0.046,1.347,0.065,0.673,0.105c0.382,0.003,0.752,0.016,1.026-0.004l-0.49-0.026
								c1.289-0.013,1.992,0.058,2.832-0.026l-0.476-0.037c0.771-0.006,1.415-0.013,1.718,0.079l-0.791,0.028
								c1.278-0.002,2.049-0.008,3.115-0.057l-0.38-0.003c1.357-0.092,8.458-0.167,9.709-0.282l-0.576-0.071l1.076-0.06
								c-0.127-0.001-0.519,0.231-0.626,0.208c0.288-0.001,0.727-0.003,1.28-0.004c0.335-0.002,0.439-0.002,0.621,0.043
								c0.17,0.045,0.348,0.125,0.502,0.258c0.151,0.132,0.29,0.303,0.368,0.508c0.043,0.101,0.067,0.21,0.084,0.322l0.011,0.189
								l0.001,0.318c0.002,0.852,0.005,1.742,0.007,2.63c0.009,3.551,0.01,7.081-0.014,8.145c-0.039,0.859-0.113,0.155-0.124,0.145
								c0.027,1.045,0.075,0.451,0.069,1.34c-0.013,0.243-0.056-0.05-0.066-0.187c0.008,0.389-0.016,0.751,0.017,0.78
								c0.026-0.487,0.114-0.281,0.171-0.487l-0.008,1.143l-0.056-0.051c-0.002,0.255,0.152,0.646,0.122,1.769
								c-0.006,1.903-0.012,3.95-0.017,5.857c-0.033-0.03-0.053-0.43-0.073-0.83c-0.002,0.255,0.007,0.645-0.017,0.88
								c0.059-0.46,0.039,0.799,0.064,0.44c0.136,1.395,0.012,3.2,0.104,4.432c0.122,0.108,2.104,2.637,2.25,2.637
								c-0.003,0.382-0.005,0.763-0.017,0.88c0.034-0.099,0.051-0.85,0.031-1.25l-0.078-0.069c-0.027-0.919,0.046-0.215,0.041-1.112
								c0.064-0.048,0.078,0.778,0.084,1.505c0.007-0.655,0.054-1.307-0.016-1.573c0.027-0.615,0.078,0.068,0.105-0.673
								c-0.019-0.528-0.081-1.221-0.043-1.828l0.011,0.011c0.066-1.474-0.097-2.256-0.032-3.602l0.021,0.145
								c0.037-0.476-0.013-1.413,0.027-2.272c-0.013,0.245-0.059,0.458-0.067-0.058c0.04-0.988,0-1.661,0.05-2.383l-0.063-0.693
								c-0.006-1.719-0.02-5.972-0.035-10.23c-0.006-1.064-0.011-2.128-0.017-3.153c-0.003-0.512-0.005-1.015-0.008-1.503
								c-0.001-0.244-0.003-0.484-0.004-0.72l-0.002-0.35c0-0.105-0.009-0.339-0.028-0.498c-0.164-1.441-1.161-2.51-2.166-2.945
								c-0.506-0.229-1.019-0.32-1.468-0.324c-0.298,0-0.56,0.001-0.782,0.001l0.135-0.01c-2.633,0.009-6.647,0.022-10.686,0.036
								c-2.018,0.009-4.042,0.019-5.904,0.027c-0.929,0.007-1.818,0.015-2.645,0.021c-0.413,0.005-0.81,0.009-1.19,0.013
								L18.4,10.013c-0.131,0.007-0.261,0.014-0.389,0.02c-0.272,0.03-0.533,0.087-0.778,0.17c-0.618,0.165-1.302,0.584-1.774,1.203
								c-0.486,0.607-0.734,1.396-0.762,2.067c0.107-0.744,0.099-0.477,0.063,0.093c-0.011,2.709,0.042,0.19,0.067,2.902
								c0.057,3.114-0.008,15.03-0.06,17.794c0.091,1.485,0.022,3.338,0.079,4.793l-0.021-0.146
								c0.001,0.396,0.004,1.237,0.007,2.313c-0.002,0.538-0.004,1.135-0.006,1.761c-0.001,0.157-0.001,0.315-0.002,0.475
								c0.001,0.202,0.017,0.466,0.061,0.697c0.088,0.476,0.277,0.941,0.556,1.344c0.551,0.812,1.46,1.369,2.402,1.5
								c0.534,0.065,0.788,0.033,1.094,0.043c0.301,0.001,0.591,0.002,0.869,0.003c1.109-0.003,1.997-0.005,2.456-0.006
								l-0.244-0.013c1.583-0.056,1.368,0.043,2.615,0.074c-0.164-0.102,1.193-0.16,1.71-0.167l-0.02,0.022
								c0.78-0.017,2.548-0.106,3.836-0.119l-0.05,0.056c1.075-0.06,3.095-0.035,3.868-0.041c0.878,0.016,2.01,0.037,3.203,0.059
								c0.602,0.005,1.217,0.009,1.831,0.014l0.461-0.002l0.233-0.002l0.328-0.019c0.436-0.048,0.859-0.183,1.23-0.388
								c0.671-0.291,1.262-0.805,1.638-1.475c0.046-0.102,0.085-0.207,0.116-0.315c0,0-0.028-0.263-0.157-0.546
								c-0.128-0.286-0.367-0.566-0.631-0.682c-0.267-0.122-0.539-0.106-0.784,0.06c-0.245,0.147-0.453,0.396-0.77,0.658
								l-0.03-0.052c-0.055,0.085-0.125,0.16-0.2,0.229c-0.3,0.205-0.465,0.263-0.452,0.214c0.157-0.04,0.308-0.113,0.438-0.217
								c-0.311,0.188-0.105,0.029-0.03-0.079c-0.11,0.09-0.237,0.15-0.344,0.171c-0.055,0.04,0.055,0.012,0.106-0.007
								c-0.076,0.051-0.176,0.103-0.292,0.132c-0.058,0.02-0.116,0.021-0.185,0.029c-0.125-0.002-0.245-0.004-0.375-0.006
								c-0.761-0.005-0.049-0.09-0.937-0.096c-4.685-0.043-9.225-0.107-13.96-0.095c-0.108-0.023,0.021-0.022,0.157-0.033
								c-1.435,0.014-2.684,0.027-3.994,0.04c-0.361-0.025-0.459-0.059-0.566-0.082c0.054,0.012-0.368,0.02-1.032,0.027
								c-0.166,0.001-0.347,0.003-0.54,0.005c-0.184,0-0.184-0.004-0.287-0.019c-0.157-0.031-0.315-0.113-0.444-0.237
								c-0.126-0.127-0.212-0.286-0.248-0.448c-0.005-0.041-0.016-0.081-0.017-0.122l-0.005-0.193c0-0.201,0-0.391,0-0.567
								C17.443,42.105,17.445,41.628,17.445,41.59z"/>
						</g>
					</g>
				</g>
			</g>
		</g>
		<g id="home_00000081645796294148860580000001911148997783566472_">
			<g>
				<g>
					<g>
						<g>
							<path fill="#4AA147" d="M21.176,21.161c0.049,0.061,0.133,0.066,0.213,0.077C21.328,21.18,21.262,21.154,21.176,21.161z"/>
							<polygon fill="#4AA147" points="21.391,21.239 21.392,21.238 21.389,21.238 							"/>
							<path fill="#4AA147" d="M36.868,18.526c-0.02,0.001-0.043,0.002-0.066,0.004C36.824,18.531,36.846,18.531,36.868,18.526z"/>
							<path fill="#4AA147" d="M25.254,21.413l0.012-0.1c0.189-0.001,0.055,0.115,0.23,0.09c0.068-0.142,0.291,0.015,0.351-0.061
								c-0.001,0.011,0.084,0.016,0.079,0.06c0.026-0.077,0.088-0.018,0.142-0.038c0.02-0.021-0.014-0.023-0.029-0.046l0.124-0.027
								c0.048,0.025,0.06,0.07,0.008,0.079c0.323,0.028,1.876,0.102,2.225,0.063c-0.045-0.058-0.152-0.019-0.193-0.11
								c0.092-0.051,0.136,0.018,0.176-0.036c0.035,0.136,0.202,0.033,0.272,0.171l0.026-0.077l0.046,0.047
								c0.405-0.08,0.093-0.039,0.452-0.021c0.208-0.012,0.307-0.119,0.422-0.079c-0.017-0.001-0.063-0.048-0.009-0.068
								c0.009,0.068,0.143-0.049,0.17,0.02c0.053-0.009,0.224,0,0.166-0.092c0.029,0.046,0.181,0.065,0.091,0.105
								c0.051,0.003,0.101,0.016,0.138-0.004l-0.066-0.026c0.174-0.013,0.268,0.058,0.381-0.026l-0.064-0.037
								c0.104-0.006,0.191-0.013,0.231,0.079l-0.107,0.028c0.172-0.002,0.276-0.008,0.42-0.057l-0.051-0.003
								c0.183-0.092,1.14-0.167,1.308-0.282l-0.078-0.071l0.145-0.06c-0.017-0.001-0.07,0.231-0.084,0.208
								c0.311-0.007,1.926-0.062,2.212-0.014c0.116,0.039,0.021,0.113,0.02,0.124c0.141-0.027,0.061-0.075,0.18-0.069
								c0.033,0.013-0.007,0.056-0.025,0.066c0.052-0.008,0.101,0.016,0.105-0.017c-0.066-0.026-0.038-0.114-0.066-0.171
								l0.154,0.008l-0.007,0.056c0.034,0.002,0.087-0.152,0.238-0.122c0.255,0.024,0.532,0.005,0.789,0.017
								c-0.004,0.033-0.058,0.053-0.112,0.073c0.034,0.002,0.087-0.007,0.119,0.017c-0.062-0.059,0.108-0.039,0.059-0.064
								c0.188-0.136,0.431-0.012,0.597-0.104c0.014-0.122,0.355-2.104,0.355-2.25c0.052,0.003,0.103,0.005,0.118,0.017
								c-0.013-0.034-0.115-0.051-0.168-0.031l-0.009,0.078c-0.124,0.027-0.029-0.046-0.15-0.041
								c-0.006-0.064,0.105-0.078,0.203-0.084c-0.088-0.007-0.176-0.054-0.212,0.016c-0.083-0.027,0.009-0.078-0.091-0.105
								c-0.071,0.019-0.165,0.081-0.246,0.044l0.001-0.011c-0.199-0.066-0.304,0.097-0.485,0.032l0.02-0.021
								c-0.064-0.037-0.19,0.013-0.306-0.027c0.033,0.013,0.062,0.059-0.008,0.067c-0.133-0.04-0.224,0-0.321-0.05l-0.093,0.063
								c-0.463-0.012-2.293,0.077-2.758,0.087l0.018-0.01c-0.709,0.031-2.164,0.026-2.897,0.113
								c-0.113-0.062-0.27-0.047-0.388-0.064c0.066,0.026,0.043,0.069-0.008,0.067c-0.36-0.007-0.024,0.043-0.389,0.069
								c-0.419,0.057-2.025-0.008-2.397-0.06c-0.2,0.091-0.45,0.022-0.646,0.079l0.02-0.021c-0.21,0.034-1.402-0.05-1.647-0.017
								l0.033,0.013c-0.213,0.056-0.184-0.043-0.352-0.074c0.022,0.102-0.161,0.16-0.23,0.167l0.003-0.022
								c-0.105,0.017-0.343,0.106-0.517,0.119l0.007-0.056c-0.145,0.06-0.417,0.035-0.521,0.041
								c-0.238-0.023-0.605-0.12-0.923-0.046l-0.206-0.159l-0.03,0.016c0,0-0.331,1.917,0.089,2.326l-0.007,0.056l0.083-0.007
								c0.1,0.027,0.146-0.037,0.139,0.018L21.4,21.161c0.1,0.016,0.03,0.046-0.008,0.077c0.042,0.005,0.082,0.012,0.116,0.029
								c0.02-0.021-0.014-0.023-0.03-0.035c0.054-0.02,0.129-0.072,0.195-0.046c0.103,0.005,0.007,0.09,0.126,0.096
								c0.631,0.043,1.243,0.107,1.881,0.095c0.014,0.023-0.003,0.022-0.021,0.033c0.192-0.024,0.363-0.015,0.538-0.04
								c0.049,0.025,0.062,0.059,0.076,0.082C24.243,21.405,25.239,21.401,25.254,21.413z"/>
						</g>
					</g>
				</g>
			</g>
		</g>
		<g id="home_00000130608255225751721440000004608023683813888643_">
			<path fill="#5FAC5C" d="M7.24,18.526c-0.02,0.001-0.043,0.002-0.066,0.004C7.196,18.531,7.219,18.531,7.24,18.526z"/>
		</g>
		<g id="home_00000106148845814702145290000010992915614816412847_">
			<g>
				<g>
					<g>
						<g>
							<path fill="#4AA147" d="M21.176,27.212c0.049,0.061,0.133,0.066,0.213,0.077C21.328,27.23,21.262,27.205,21.176,27.212z"/>
							<polygon fill="#4AA147" points="21.391,27.289 21.392,27.289 21.389,27.288 							"/>
							<path fill="#4AA147" d="M36.868,24.576c-0.02,0.001-0.043,0.002-0.066,0.004C36.824,24.582,36.846,24.582,36.868,24.576z"/>
							<path fill="#4AA147" d="M25.254,27.464l0.012-0.1c0.189-0.001,0.055,0.115,0.23,0.09c0.068-0.142,0.291,0.015,0.351-0.061
								c-0.001,0.011,0.084,0.016,0.079,0.06c0.026-0.077,0.088-0.018,0.142-0.038c0.02-0.021-0.014-0.023-0.029-0.046l0.124-0.027
								c0.048,0.025,0.06,0.07,0.008,0.079c0.323,0.028,1.876,0.102,2.225,0.063c-0.045-0.058-0.152-0.019-0.193-0.11
								c0.092-0.051,0.136,0.018,0.176-0.036c0.035,0.136,0.202,0.033,0.272,0.171l0.026-0.077l0.046,0.047
								c0.405-0.08,0.093-0.039,0.452-0.021c0.208-0.012,0.307-0.119,0.422-0.079c-0.017-0.001-0.063-0.048-0.009-0.068
								c0.009,0.068,0.143-0.049,0.17,0.02c0.053-0.009,0.224,0,0.166-0.092c0.029,0.046,0.181,0.065,0.091,0.105
								c0.051,0.003,0.101,0.016,0.138-0.004l-0.066-0.026c0.174-0.013,0.268,0.058,0.381-0.026l-0.064-0.037
								c0.104-0.006,0.191-0.013,0.231,0.079l-0.107,0.028c0.172-0.002,0.276-0.008,0.42-0.057l-0.051-0.003
								c0.183-0.092,1.14-0.167,1.308-0.282l-0.078-0.071l0.145-0.06c-0.017-0.001-0.07,0.231-0.084,0.208
								c0.311-0.007,1.926-0.062,2.212-0.014c0.116,0.039,0.021,0.113,0.02,0.124c0.141-0.027,0.061-0.075,0.18-0.069
								c0.033,0.013-0.007,0.056-0.025,0.066c0.052-0.008,0.101,0.016,0.105-0.017c-0.066-0.026-0.038-0.114-0.066-0.171
								l0.154,0.008l-0.007,0.056c0.034,0.002,0.087-0.152,0.238-0.122c0.255,0.024,0.532,0.005,0.789,0.017
								c-0.004,0.033-0.058,0.053-0.112,0.073c0.034,0.002,0.087-0.007,0.119,0.017c-0.062-0.059,0.108-0.039,0.059-0.064
								c0.188-0.136,0.431-0.012,0.597-0.104c0.014-0.122,0.355-2.104,0.355-2.25c0.052,0.003,0.103,0.005,0.118,0.017
								c-0.013-0.034-0.115-0.051-0.168-0.031l-0.009,0.078c-0.124,0.027-0.029-0.046-0.15-0.041
								c-0.006-0.064,0.105-0.078,0.203-0.084c-0.088-0.007-0.176-0.054-0.212,0.016c-0.083-0.027,0.009-0.078-0.091-0.105
								c-0.071,0.019-0.165,0.081-0.246,0.044l0.001-0.011c-0.199-0.066-0.304,0.097-0.485,0.032l0.02-0.021
								c-0.064-0.037-0.19,0.013-0.306-0.027c0.033,0.013,0.062,0.059-0.008,0.067c-0.133-0.04-0.224,0-0.321-0.05l-0.093,0.063
								c-0.463-0.012-2.293,0.077-2.758,0.087l0.018-0.01c-0.709,0.031-2.164,0.026-2.897,0.113
								c-0.113-0.062-0.27-0.047-0.388-0.064c0.066,0.026,0.043,0.069-0.008,0.067c-0.36-0.007-0.024,0.043-0.389,0.069
								c-0.419,0.057-2.025-0.008-2.397-0.06c-0.2,0.091-0.45,0.022-0.646,0.079l0.02-0.021c-0.21,0.034-1.402-0.05-1.647-0.017
								l0.033,0.013c-0.213,0.056-0.184-0.043-0.352-0.074c0.022,0.102-0.161,0.16-0.23,0.167l0.003-0.022
								c-0.105,0.017-0.343,0.106-0.517,0.119l0.007-0.056c-0.145,0.06-0.417,0.035-0.521,0.041
								c-0.238-0.023-0.605-0.12-0.923-0.046l-0.206-0.159l-0.03,0.016c0,0-0.331,1.917,0.089,2.326l-0.007,0.056l0.083-0.007
								c0.1,0.027,0.146-0.037,0.139,0.018L21.4,27.212c0.1,0.016,0.03,0.046-0.008,0.077c0.042,0.005,0.082,0.012,0.116,0.029
								c0.02-0.021-0.014-0.023-0.03-0.035c0.054-0.02,0.129-0.072,0.195-0.046c0.103,0.005,0.007,0.09,0.126,0.096
								c0.631,0.043,1.243,0.107,1.881,0.095c0.014,0.023-0.003,0.022-0.021,0.033c0.192-0.024,0.363-0.015,0.538-0.04
								c0.049,0.025,0.062,0.059,0.076,0.082C24.243,27.456,25.239,27.452,25.254,27.464z"/>
						</g>
					</g>
				</g>
			</g>
		</g>
		<g id="home_00000018936001341437770480000004783610690135393181_">
			<g>
				<g>
					<g>
						<g>
							<path fill="#4AA147" d="M21.176,33.262c0.049,0.061,0.133,0.066,0.213,0.077C21.328,33.281,21.262,33.255,21.176,33.262z"/>
							<polygon fill="#4AA147" points="21.391,33.34 21.392,33.339 21.389,33.339 							"/>
							<path fill="#4AA147" d="M36.868,30.627c-0.02,0.001-0.043,0.002-0.066,0.004C36.824,30.632,36.846,30.632,36.868,30.627z"/>
							<path fill="#4AA147" d="M25.254,33.514l0.012-0.1c0.189-0.001,0.055,0.115,0.23,0.09c0.068-0.142,0.291,0.015,0.351-0.061
								c-0.001,0.011,0.084,0.016,0.079,0.06c0.026-0.077,0.088-0.018,0.142-0.038c0.02-0.021-0.014-0.023-0.029-0.046l0.124-0.027
								c0.048,0.025,0.06,0.07,0.008,0.079c0.323,0.028,1.876,0.102,2.225,0.063c-0.045-0.058-0.152-0.019-0.193-0.11
								c0.092-0.051,0.136,0.018,0.176-0.036c0.035,0.136,0.202,0.033,0.272,0.171l0.026-0.077l0.046,0.047
								c0.405-0.08,0.093-0.039,0.452-0.021c0.208-0.012,0.307-0.119,0.422-0.079c-0.017-0.001-0.063-0.048-0.009-0.068
								c0.009,0.068,0.143-0.049,0.17,0.02c0.053-0.009,0.224,0,0.166-0.092c0.029,0.046,0.181,0.065,0.091,0.105
								c0.051,0.003,0.101,0.016,0.138-0.004l-0.066-0.026c0.174-0.013,0.268,0.058,0.381-0.026L30.404,33.3
								c0.104-0.006,0.191-0.013,0.231,0.079l-0.107,0.028c0.172-0.002,0.276-0.008,0.42-0.057l-0.051-0.003
								c0.183-0.092,1.14-0.167,1.308-0.282l-0.078-0.071l0.145-0.06c-0.017-0.001-0.07,0.231-0.084,0.208
								c0.311-0.007,1.926-0.062,2.212-0.014c0.116,0.039,0.021,0.113,0.02,0.124c0.141-0.027,0.061-0.075,0.18-0.069
								c0.033,0.013-0.007,0.056-0.025,0.066c0.052-0.008,0.101,0.016,0.105-0.017c-0.066-0.026-0.038-0.114-0.066-0.171
								l0.154,0.008l-0.007,0.056c0.034,0.002,0.087-0.152,0.238-0.122c0.255,0.024,0.532,0.005,0.789,0.017
								c-0.004,0.033-0.058,0.053-0.112,0.073c0.034,0.002,0.087-0.007,0.119,0.017c-0.062-0.059,0.108-0.039,0.059-0.064
								c0.188-0.136,0.431-0.012,0.597-0.104c0.014-0.122,0.355-2.104,0.355-2.25c0.052,0.003,0.103,0.005,0.118,0.017
								c-0.013-0.034-0.115-0.051-0.168-0.031l-0.009,0.078c-0.124,0.027-0.029-0.046-0.15-0.041
								c-0.006-0.064,0.105-0.078,0.203-0.084c-0.088-0.007-0.176-0.054-0.212,0.016c-0.083-0.027,0.009-0.078-0.091-0.105
								c-0.071,0.019-0.165,0.081-0.246,0.044l0.001-0.011c-0.199-0.066-0.304,0.097-0.485,0.032l0.02-0.021
								c-0.064-0.037-0.19,0.013-0.306-0.027c0.033,0.013,0.062,0.059-0.008,0.067c-0.133-0.04-0.224,0-0.321-0.05l-0.093,0.063
								c-0.463-0.012-2.293,0.077-2.758,0.087l0.018-0.01c-0.709,0.031-2.164,0.026-2.897,0.113
								c-0.113-0.062-0.27-0.047-0.388-0.064c0.066,0.026,0.043,0.069-0.008,0.067c-0.36-0.007-0.024,0.043-0.389,0.069
								c-0.419,0.057-2.025-0.008-2.397-0.06c-0.2,0.091-0.45,0.022-0.646,0.079l0.02-0.021c-0.21,0.034-1.402-0.05-1.647-0.017
								l0.033,0.013c-0.213,0.056-0.184-0.043-0.352-0.074c0.022,0.102-0.161,0.16-0.23,0.167l0.003-0.022
								c-0.105,0.017-0.343,0.106-0.517,0.119l0.007-0.056c-0.145,0.06-0.417,0.035-0.521,0.041
								c-0.238-0.023-0.605-0.12-0.923-0.046l-0.206-0.159l-0.03,0.016c0,0-0.331,1.917,0.089,2.326l-0.007,0.056l0.083-0.007
								c0.1,0.027,0.146-0.037,0.139,0.018L21.4,33.262c0.1,0.016,0.03,0.046-0.008,0.077c0.042,0.005,0.082,0.012,0.116,0.029
								c0.02-0.021-0.014-0.023-0.03-0.035c0.054-0.02,0.129-0.072,0.195-0.046c0.103,0.005,0.007,0.09,0.126,0.096
								c0.631,0.043,1.243,0.107,1.881,0.095c0.014,0.023-0.003,0.022-0.021,0.033c0.192-0.024,0.363-0.015,0.538-0.04
								c0.049,0.025,0.062,0.059,0.076,0.082C24.243,33.506,25.239,33.502,25.254,33.514z"/>
						</g>
					</g>
				</g>
			</g>
		</g>
		<g id="home_00000062880270718545516860000010680017315345401489_">
			<g>
				<g>
					<g>
						<g>
							<path fill="#4AA147" d="M21.176,39.313c0.049,0.061,0.133,0.066,0.213,0.077C21.328,39.331,21.262,39.306,21.176,39.313z"/>
							<polygon fill="#4AA147" points="21.391,39.39 21.392,39.39 21.389,39.389 							"/>
							<path fill="#4AA147" d="M36.868,36.677c-0.02,0.001-0.043,0.002-0.066,0.004C36.824,36.683,36.846,36.683,36.868,36.677z"/>
							<path fill="#4AA147" d="M25.254,39.565l0.012-0.1c0.189-0.001,0.055,0.115,0.23,0.09c0.068-0.142,0.291,0.015,0.351-0.061
								c-0.001,0.011,0.084,0.016,0.079,0.06c0.026-0.077,0.088-0.018,0.142-0.038c0.02-0.021-0.014-0.023-0.029-0.046l0.124-0.027
								c0.048,0.025,0.06,0.07,0.008,0.079c0.323,0.028,1.876,0.102,2.225,0.063c-0.045-0.058-0.152-0.019-0.193-0.11
								c0.092-0.051,0.136,0.018,0.176-0.036c0.035,0.136,0.202,0.033,0.272,0.171l0.026-0.077l0.046,0.047
								c0.405-0.08,0.093-0.039,0.452-0.021c0.208-0.012,0.307-0.119,0.422-0.079c-0.017-0.001-0.063-0.048-0.009-0.068
								c0.009,0.068,0.143-0.049,0.17,0.02c0.053-0.009,0.224,0,0.166-0.092c0.029,0.046,0.181,0.065,0.091,0.105
								c0.051,0.003,0.101,0.016,0.138-0.004l-0.066-0.026c0.174-0.013,0.268,0.058,0.381-0.026l-0.064-0.037
								c0.104-0.006,0.191-0.013,0.231,0.079l-0.107,0.028c0.172-0.002,0.276-0.008,0.42-0.057l-0.051-0.003
								c0.183-0.092,1.14-0.167,1.308-0.282l-0.078-0.071l0.145-0.06c-0.017-0.001-0.07,0.231-0.084,0.208
								c0.311-0.007,1.926-0.062,2.212-0.014c0.116,0.039,0.021,0.113,0.02,0.124c0.141-0.027,0.061-0.075,0.18-0.069
								c0.033,0.013-0.007,0.056-0.025,0.066c0.052-0.008,0.101,0.016,0.105-0.017c-0.066-0.026-0.038-0.114-0.066-0.171
								l0.154,0.008l-0.007,0.056c0.034,0.002,0.087-0.152,0.238-0.122c0.255,0.024,0.532,0.005,0.789,0.017
								c-0.004,0.033-0.058,0.053-0.112,0.073c0.034,0.002,0.087-0.007,0.119,0.017c-0.062-0.059,0.108-0.039,0.059-0.064
								c0.188-0.136,0.431-0.012,0.597-0.104c0.014-0.122,0.355-2.104,0.355-2.25c0.052,0.003,0.103,0.005,0.118,0.017
								c-0.013-0.034-0.115-0.051-0.168-0.031l-0.009,0.078c-0.124,0.027-0.029-0.046-0.15-0.041
								c-0.006-0.064,0.105-0.078,0.203-0.084c-0.088-0.007-0.176-0.054-0.212,0.016c-0.083-0.027,0.009-0.078-0.091-0.105
								c-0.071,0.019-0.165,0.081-0.246,0.044l0.001-0.011c-0.199-0.066-0.304,0.097-0.485,0.032l0.02-0.021
								c-0.064-0.037-0.19,0.013-0.306-0.027c0.033,0.013,0.062,0.059-0.008,0.067c-0.133-0.04-0.224,0-0.321-0.05l-0.093,0.063
								c-0.463-0.012-2.293,0.077-2.758,0.087l0.018-0.01c-0.709,0.031-2.164,0.026-2.897,0.113
								c-0.113-0.062-0.27-0.047-0.388-0.064c0.066,0.026,0.043,0.069-0.008,0.067c-0.36-0.007-0.024,0.043-0.389,0.069
								c-0.419,0.057-2.025-0.008-2.397-0.06c-0.2,0.091-0.45,0.022-0.646,0.079l0.02-0.021c-0.21,0.034-1.402-0.05-1.647-0.017
								l0.033,0.013c-0.213,0.056-0.184-0.043-0.352-0.074c0.022,0.102-0.161,0.16-0.23,0.167l0.003-0.022
								c-0.105,0.017-0.343,0.106-0.517,0.119l0.007-0.056c-0.145,0.06-0.417,0.035-0.521,0.041
								c-0.238-0.023-0.605-0.12-0.923-0.046l-0.206-0.159l-0.03,0.016c0,0-0.331,1.917,0.089,2.326l-0.007,0.056l0.083-0.007
								c0.1,0.027,0.146-0.037,0.139,0.018L21.4,39.313c0.1,0.016,0.03,0.046-0.008,0.077c0.042,0.005,0.082,0.012,0.116,0.029
								c0.02-0.021-0.014-0.023-0.03-0.035c0.054-0.02,0.129-0.072,0.195-0.046c0.103,0.005,0.007,0.09,0.126,0.096
								c0.631,0.043,1.243,0.107,1.881,0.095c0.014,0.023-0.003,0.022-0.021,0.033c0.192-0.024,0.363-0.015,0.538-0.04
								c0.049,0.025,0.062,0.059,0.076,0.082C24.243,39.557,25.239,39.553,25.254,39.565z"/>
						</g>
					</g>
				</g>
			</g>
		</g>
		<g>
			<path fill="#5FAC5C" d="M32.745,14.028h-7.444c-1.642,0-2.985-1.343-2.985-2.985v0c0-1.642,1.343-2.985,2.985-2.985h7.444
				c1.642,0,2.985,1.343,2.985,2.985v0C35.73,12.685,34.386,14.028,32.745,14.028z"/>
		</g>
		<g>
			<circle fill="#5FAC5C" cx="29.023" cy="8.174" r="3.14"/>
		</g>
	</g>
</g>
</svg>
