<?xml version="1.0" encoding="utf-8"?>
<!-- Generator: Adobe Illustrator 25.4.1, SVG Export Plug-In . SVG Version: 6.00 Build 0)  -->
<svg version="1.1" id="Capa_1" xmlns="http://www.w3.org/2000/svg" xmlns:xlink="http://www.w3.org/1999/xlink" x="0px" y="0px"
	 viewBox="0 0 57.513 54.477" enable-background="new 0 0 57.513 54.477" xml:space="preserve">
<g>
	<g id="home_00000134248187345668930680000013268611893876617900_">
		<g>
			<g>
				<g>
					<g>
						<path fill="#4AA147" d="M16.927,34.148c0.061-0.348,0.066-0.949,0.077-1.518C16.945,33.068,16.92,33.534,16.927,34.148z"/>
						<polygon fill="#4AA147" points="17.005,32.619 17.004,32.61 17.003,32.63 						"/>
						<path fill="#4AA147" d="M16.136,35.98c0.142-0.001,0.304-0.002,0.468-0.004L16.136,35.98z"/>
						<path fill="#4AA147" d="M25.647,11.837l0.028-0.13c1.184-0.647,0.4-0.087,1.483-0.706c0.18-0.179,0.637-0.424,1.091-0.658
							c0.632-0.331,0.455-0.211,0.5-0.279l0.007,0.006c0.011,0.015,0.025,0.036,0.014,0.066c0.036-0.024-0.025-0.063,0.085,0.001
							c0.158,0.089,0.335,0.197,0.509,0.281c0.133,0.048-0.079-0.069-0.159-0.14l0.788,0.399c0.291,0.187,0.344,0.268,0.011,0.095
							c1.412,0.782,6.829,3.78,10.3,5.702c0.005,1.03,0.008,1.864,0.01,2.317c0.058-0.319,0.019-1.086,0.11-1.378
							c0.051,0.657-0.018,0.967,0.036,1.257c-0.136,0.252-0.033,1.444-0.171,1.941l0.077,0.188l-0.047,0.326
							c0.08,2.889,0.039,0.66,0.021,3.221c0.012,1.482,0.119,2.186,0.079,3.011c0.001-0.123,0.048-0.449,0.068-0.065
							c-0.068,0.065,0.049,1.022-0.02,1.209c0.009,0.376,0,1.594,0.092,1.182c-0.046,0.207-0.065,1.294-0.105,0.647
							c-0.003,0.367-0.016,0.722,0.004,0.986l0.026-0.471c-0.006,0.618-0.01,1.097-0.014,1.522c0.001,0.212,0.001,0.407,0.002,0.607
							c0.003,0.14,0.007,0.063,0.013,0.104l0.025,0.047l0.037-0.066c0.005,0.1,0.01,0.209-0.037,0.211
							c-0.023-0.011-0.044-0.025-0.066-0.042l0.016-0.007l-0.021-0.077c0.001,0.021,0.001,0.041,0.002,0.058
							c-0.045,0.002-0.082,0.006-0.123,0.014c-0.019,0.002-0.001,0.004-0.052,0.007l-0.291,0.009
							c-0.193,0.008-0.394,0.016-0.61,0.025l0.365,0.003c-0.481,0.034-1.713,0.065-3.136,0.098c-0.712,0.016-1.47,0.033-2.208,0.049
							c-0.184,0.004-0.367,0.008-0.548,0.013l-0.149,0.013c-0.097,0.009-0.191,0.018-0.279,0.027
							c-0.026-0.249-0.053-0.302-0.083-0.809c-0.024,0.155-0.047,0.443-0.071,0.457c-0.01-0.014-0.02-0.27-0.03-0.42l-0.03-0.517
							c-0.001,0.122,0.231,0.499,0.208,0.601c-0.004-1.229-0.015-4.975-0.027-8.765c-3.607,0-7.244-0.001-9.247-0.001
							c-0.005,0.722-0.009,1.267-0.012,1.639c-0.039,1.415-0.113,0.24-0.124,0.205c0.013,0.978,0.032,0.894,0.047,1.024
							c0.015,0.089,0.025,0.16,0.022,0.587C24.053,27.693,24.01,27.411,24,27.28c0.008,0.374-0.016,0.721,0.017,0.75
							c0.026-0.468,0.114-0.27,0.171-0.468l-0.008,1.098l-0.056-0.049c-0.002,0.245,0.152,0.621,0.122,1.7
							c-0.004,1.067-0.008,2.193-0.013,3.281c-0.171-0.002-0.336-0.003-0.497-0.005c0.009-0.033,0.134-0.053,0.24-0.073
							c-0.075-0.002-0.192,0.007-0.262-0.017c0.034,0.015,0.039,0.025,0.025,0.031c-0.025,0.007-0.011,0.011-0.143,0.013
							c-0.204,0.006-0.42,0.007-0.247,0.019c-1.34,0.136-3.074,0.012-4.257,0.104c-0.103,0.122-2.533,2.104-2.533,2.25
							c-0.367-0.003-0.733-0.005-0.845-0.017c0.095,0.034,0.817,0.051,1.201,0.031l0.066-0.078c0.883-0.027,0.207,0.046,1.069,0.041
							c0.046,0.064-0.747,0.078-1.446,0.084c0.629,0.007,1.255,0.054,1.511-0.016c0.591,0.027-0.066,0.078,0.646,0.105
							c0.507-0.019,1.173-0.081,1.756-0.044l-0.01,0.011c0.708,0.033,1.25,0.009,1.776-0.016c0.269-0.01,0.531-0.02,0.797-0.029
							c0.139,0,0.277-0.001,0.425-0.001c0.225,0.005,0.461,0.009,0.726,0.015l-0.271,0.021c0.613,0.025,1.624,0.01,2.716,0.01
							c0.005-0.514,0.011-1.041,0.016-1.597c-0.013,0.465-0.059,0.828-0.067-0.14c0.008-0.735,0.015-1.308,0.021-1.847
							c0.001-0.367,0.004-0.702,0.028-1.049l-0.063-0.666c0-0.545-0.001-1.354-0.001-2.331c-0.002-0.488-0.003-1.018-0.005-1.578
							c-0.001-0.094-0.002-0.191-0.004-0.289l-0.004-0.067c-1.049-0.011,5.544-0.027,4.357-0.04c0.016,2.708,0.026,4.598,0.032,5.53
							l-0.01-0.13c0.004,1.173,0.008,2.537,0.012,4.052c3.524-0.009,7.924-0.02,12.102-0.031c-0.009-2.068-0.018-4.076-0.026-5.916
							c-0.016-1.433-0.031-2.734-0.043-3.821c0.062-0.808,0.047-1.922,0.064-2.765c-0.026,0.469-0.069,0.308-0.067-0.058
							c0.007-2.569-0.043-0.173-0.069-2.771c-0.004-1.098-0.012-3.158-0.022-5.605c-2.147-1.182-4.628-2.547-6.792-3.739
							c-1.964-1.098-3.637-2.033-4.432-2.478c-0.376-0.175-0.772-0.376-1.175-0.589c-0.587-0.318-1.183-0.64-1.774-0.959
							c-0.48,0.264-0.955,0.524-1.417,0.778c-0.273,0.158-0.537,0.31-0.8,0.461l0.113-0.086c-1.339,0.728-8.767,4.765-10.315,5.606
							l0.212-0.101c-0.208,0.121-0.375,0.218-0.515,0.299c-0.231,0.125-0.414,0.225-0.58,0.314c-0.339,0.17-0.608,0.305-0.922,0.462
							c-0.019,0.371-0.041,0.854-0.052,1.628c0.102-0.157,0.16,1.146,0.167,1.643l-0.022-0.019c0.017,0.749,0.106,2.447,0.119,3.685
							l-0.056-0.048c0.06,1.032,0.035,2.973,0.041,3.715c-0.023,1.697-0.12,4.313-0.046,6.582l-0.159,1.466l0.016,0.215
							c0,0,1.917,2.36,2.326-0.636l0.056,0.048l-0.007-0.592c0.027-0.711-0.037-1.04,0.018-0.991l-0.007,0.974
							c0.016-0.714,0.046-0.216,0.077,0.057c0.005-0.298,0.012-0.588,0.029-0.825c-0.021-0.141-0.023,0.103-0.035,0.215
							c-0.02-0.384-0.072-0.919-0.046-1.387c0.005-0.731,0.09-0.047,0.096-0.9c0.023-2.249,0.046-4.467,0.068-6.687
							c0.009-2.17,0.018-4.337,0.027-6.554c0.023-0.002,0.022,0.004,0.033,0.009c-0.005-0.01-0.009-0.022-0.012-0.034l0.023-0.019
							c0.183-0.102,0.364-0.202,0.542-0.301c0.426-0.239,0.844-0.474,1.271-0.714c0.316-0.144,0.416-0.159,0.517-0.188
							c-0.101,0.029,1.405-0.807,2.95-1.656C24.014,12.726,25.582,11.872,25.647,11.837z"/>
					</g>
				</g>
			</g>
		</g>
	</g>
	<rect x="-2.729" y="42.044" fill="none" width="62.971" height="13.901"/>
	<text transform="matrix(1 0 0 1 19.5412 50.046)" fill="#4AA147" font-family="'YanoneKaffeesatz-Bold'" font-size="10.8873px">MENÚ</text>
</g>
</svg>
