<?xml version="1.0" encoding="utf-8"?>
<!-- Generator: Adobe Illustrator 25.4.1, SVG Export Plug-In . SVG Version: 6.00 Build 0)  -->
<svg version="1.1" id="Capa_1" xmlns="http://www.w3.org/2000/svg" xmlns:xlink="http://www.w3.org/1999/xlink" x="0px" y="0px"
	 viewBox="0 0 57.513 54.477" enable-background="new 0 0 57.513 54.477" xml:space="preserve">
<g>
	<g id="search_magnifying_glass_00000056413799321123365910000001124805255563146656_">
		<g>
			<g>
				<g>
					<g>
						<g>
							<g>
								<path fill="#4AA147" d="M34.078,17.661c-0.073,0.18-0.087,0.492-0.12,0.785C34.036,18.225,34.065,17.982,34.078,17.661z"/>
								<polygon fill="#4AA147" points="33.955,18.451 33.955,18.455 33.957,18.445 								"/>
								<path fill="#4AA147" d="M36.712,17.165c-0.006-0.095-0.012-0.203-0.019-0.312C36.699,16.957,36.705,17.054,36.712,17.165z"
									/>
								<path fill="#4AA147" d="M24.048,26.536l-0.052,0.098c-0.691-0.056-0.188-0.133-0.821-0.193
									c-0.279,0.13-1.025-0.252-1.256-0.234c0.008-0.009-0.283-0.122-0.25-0.157c-0.116,0.04-0.307-0.093-0.499-0.141
									c-0.076-0.004,0.04,0.039,0.082,0.079c-0.149-0.035-0.283-0.106-0.424-0.16c-0.15-0.1-0.168-0.159,0.008-0.084
									c-0.541-0.22-2.031-1.128-3.119-2.464c-1.098-1.331-1.68-2.981-1.816-3.59c-0.015,0.172,0.11,0.541,0.089,0.705
									c-0.178-0.297-0.116-0.482-0.216-0.609c0.05-0.08,0.012-0.26-0.031-0.455c-0.028-0.198-0.046-0.414,0.001-0.548
									l-0.091-0.084l0.021-0.17c-0.106-0.727-0.099-0.816-0.107-0.878c0.001-0.063-0.007-0.107,0.045-0.758
									c-0.002-0.379,0.027-0.656,0.038-0.895c0.012-0.239,0.018-0.439,0.1-0.637c-0.017,0.06-0.106,0.213-0.075,0.017
									c0.075-0.016,0.085-0.524,0.174-0.599c0.042-0.189,0.28-0.773,0.115-0.607c0.074-0.089,0.3-0.601,0.212-0.276
									c0.075-0.173,0.175-0.328,0.213-0.461l-0.129,0.208c0.252-0.592,0.502-0.847,0.65-1.247l-0.154,0.184
									c0.182-0.34,0.381-0.598,0.545-0.663l-0.213,0.33c0.185-0.255,0.332-0.457,0.476-0.655c0.152-0.186,0.299-0.36,0.457-0.574
									l-0.129,0.139c0.169-0.301,0.924-1.057,1.792-1.667c0.431-0.313,0.902-0.555,1.288-0.767
									c0.398-0.181,0.717-0.319,0.858-0.404l-0.3,0.035c0.167-0.084,0.334-0.17,0.511-0.228c-0.066,0.015-0.193,0.285-0.248,0.288
									c0.543-0.178,2.346-0.675,4.16-0.398c0.906,0.082,1.764,0.391,2.459,0.649c0.333,0.164,0.631,0.311,0.876,0.432
									c0.228,0.146,0.406,0.26,0.525,0.336c0.352,0.258,0.005,0.135-0.005,0.142c0.455,0.264,0.229,0.067,0.59,0.334
									c0.091,0.084-0.054,0.029-0.115-0.004c0.162,0.111,0.293,0.238,0.325,0.221c-0.181-0.166-0.043-0.174-0.093-0.282
									c0.156,0.118,0.314,0.233,0.451,0.374l-0.056,0.025c0.088,0.094,0.359,0.096,0.743,0.534
									c0.677,0.706,1.283,1.592,1.702,2.477c-0.037,0.001-0.143-0.175-0.248-0.351c0.054,0.119,0.148,0.294,0.179,0.413
									c-0.049-0.238,0.213,0.352,0.156,0.175c0.232,0.289,0.342,0.694,0.49,1.067c0.093,0.392,0.202,0.768,0.3,1.074
									c0.064,0.015,0.633,0.257,1.215,0.57c0.573,0.306,1.105,0.688,1.184,0.685c0.01,0.244,0.018,0.487,0.009,0.561
									c0.032-0.062,0.026-0.544-0.008-0.798l-0.08-0.039c-0.065-0.58,0.057-0.142-0.028-0.708c0.067-0.04,0.152,0.484,0.166,0.951
									c-0.004-0.42,0.001-0.844-0.105-1.003c-0.033-0.395,0.084,0.033,0.039-0.445c-0.056-0.339-0.237-0.755-0.298-1.144
									l0.013,0.004c-0.2-0.938-0.531-1.357-0.855-2.157l0.06,0.075c-0.086-0.303-0.43-0.803-0.694-1.293
									c0.072,0.142,0.104,0.283-0.076,0.004c-0.322-0.549-0.617-0.872-0.878-1.259l-0.346-0.289
									c-0.356-0.421-1.057-1.086-2.009-1.754c-0.961-0.652-2.196-1.27-3.512-1.637c-2.652-0.799-5.428-0.316-6.463,0.008
									l0.081-0.031c-1.62,0.404-4.017,1.567-5.719,3.518c-1.767,1.893-2.684,4.425-2.869,6.126
									c-0.167,0.515-0.182,1.254-0.222,1.81c0.04-0.309,0.079-0.202,0.065,0.038c0.032,0.844,0.049,0.871,0.064,0.901
									c0.03,0.028,0.001,0.065,0.152,0.903c0.147,0.951,0.73,3.311,2.166,5.18c1.337,1.942,3.374,3.179,4.134,3.577
									c0.862,0.37,1.961,0.775,2.865,0.929l-0.094-0.002c0.478,0.083,2.102,0.412,3.758,0.22c1.66-0.14,3.252-0.763,3.746-1.043
									l-0.144,0.055c0.875-0.477,0.792-0.336,1.485-0.72c-0.131-0.018,0.54-0.54,0.783-0.754l0.004,0.025
									c0.394-0.291,1.143-1.107,1.648-1.72l0.021,0.06c0.215-0.256,0.47-0.665,0.748-1.026c0.253-0.378,0.47-0.754,0.594-0.958
									c0.557-0.934,1.269-2.52,1.374-4.001c0.111-0.305,0.185-0.617,0.249-0.934l-0.009-0.141c0,0-0.46-0.404-0.985-0.527
									c-0.528-0.132-1.11-0.007-1.355,0.758l-0.054-0.029c-0.006,0.103,0.004,0.208-0.016,0.31
									c-0.085,0.363-0.046,0.543-0.097,0.509l0.084-0.502c-0.074,0.367-0.063,0.105-0.072-0.038
									c-0.03,0.152-0.059,0.299-0.094,0.418c0.01,0.075,0.031-0.049,0.052-0.105c-0.019,0.197,0.017,0.489-0.078,0.718
									c-0.101,0.367-0.095,0.003-0.21,0.428c-0.664,2.224-2.143,4.087-4.105,5.318c-0.057,0.008-0.003-0.024,0.049-0.068
									c-0.29,0.194-0.569,0.371-0.864,0.501c-0.284,0.154-0.571,0.28-0.87,0.39c-0.174,0.038-0.23,0.022-0.286,0.018
									c0.029,0.005-0.16,0.086-0.475,0.164c-0.157,0.043-0.342,0.093-0.541,0.147c-0.205,0.033-0.425,0.068-0.646,0.103
									c-0.442,0.072-0.9,0.068-1.244,0.084C24.3,26.551,24.073,26.537,24.048,26.536z"/>
							</g>
						</g>
					</g>
				</g>
			</g>
			<g>
				<g>
					<g>
						<g>
							<g>
								<path fill="#4AA147" d="M31.356,25.813c-0.031,0.054-0.016,0.078-0.004,0.104C31.379,25.862,31.381,25.828,31.356,25.813z"
									/>
								<polygon fill="#4AA147" points="31.352,25.918 31.352,25.918 31.352,25.917 								"/>
								<path fill="#4AA147" d="M36.898,27.621c-0.005-0.004-0.012-0.008-0.018-0.013C36.884,27.614,36.889,27.62,36.898,27.621z"/>
								<path fill="#4AA147" d="M32.135,26.946l0.074-0.068c0.045,0.043-0.068,0.094-0.01,0.118
									c0.116-0.085,0.058,0.078,0.125,0.039c-0.008,0.008,0.009,0.031-0.024,0.061c0.061-0.048,0.033,0.008,0.06,0.007
									c0.02-0.011,0.013-0.02,0.026-0.04l0.048,0.01c-0.006,0.029-0.035,0.064-0.054,0.057c0.056,0.095,0.368,0.511,0.477,0.565
									c0.031-0.052-0.022-0.049,0.033-0.123c0.058-0.015,0.019,0.044,0.067,0.016c-0.088,0.105,0.024,0.07-0.057,0.184
									l0.061-0.048l-0.023,0.044c0.152,0.038,0.049-0.006,0.121,0.091c0.057,0.04,0.156-0.012,0.155,0.043
									c-0.003-0.005,0.019-0.049,0.046-0.05c-0.046,0.05,0.068-0.001,0.026,0.054c0.018,0.006,0.052,0.052,0.104-0.027
									c-0.026,0.04-0.003,0.089-0.053,0.096c0.01,0.014,0.012,0.035,0.035,0.029l0.003-0.034c0.05,0.031,0.022,0.104,0.108,0.071
									L33.494,28c0.028,0.02,0.054,0.036-0.001,0.11l-0.045-0.005c0.042,0.039,0.071,0.059,0.139,0.058l-0.01-0.014
									c0.108-0.022,0.385,0.148,0.506,0.107l0.032-0.069l0.076-0.008c-0.003-0.005-0.18,0.147-0.167,0.127
									c0.077,0.068,0.495,0.407,0.529,0.508c-0.001,0.055-0.075,0.085-0.083,0.092c0.052,0.014,0.068-0.039,0.091-0.007
									c-0.001,0.017-0.041,0.038-0.052,0.041c0.018,0.006,0.012,0.035,0.037,0.013c0.003-0.034,0.072-0.09,0.106-0.137
									l0.031,0.041l-0.041,0.038c0.007,0.009,0.128-0.087,0.142-0.031c0.043,0.077,0.122,0.128,0.173,0.197
									c-0.025,0.023-0.051,0.024-0.078,0.025c0.007,0.009,0.025,0.015,0.016,0.04c0.027-0.056,0.053-0.003,0.059-0.032
									c0.14-0.052,0.109,0.093,0.214,0.066c0.09-0.083,1.57-1.406,1.673-1.509c0.01,0.014,0.02,0.028,0.016,0.04
									c0.021-0.027,0.009-0.063-0.018-0.061l-0.057,0.053c-0.048-0.01,0.026-0.04-0.006-0.064c0.044-0.047,0.079-0.03,0.107-0.012
									c-0.015-0.026-0.003-0.079-0.061-0.038c-0.001-0.038,0.057-0.053,0.053-0.096c-0.03-0.003-0.096,0.019-0.088-0.027
									l0.008-0.008c0-0.093-0.14-0.003-0.136-0.091l0.02-0.011c0.011-0.041-0.054-0.036-0.053-0.091
									c-0.001,0.017-0.027,0.056-0.049,0.045c-0.003-0.06-0.052-0.052-0.04-0.11l-0.066,0.022c-0.1-0.117-0.592-0.482-0.708-0.584
									l0.011-0.003c-0.188-0.144-0.526-0.488-0.759-0.598c0.017-0.07-0.03-0.096-0.046-0.136
									c-0.003,0.034-0.039,0.059-0.049,0.045c-0.079-0.089-0.036,0.024-0.14-0.042c-0.139-0.058-0.469-0.48-0.52-0.604
									c-0.111,0.017-0.121-0.09-0.208-0.095l0.02-0.011c-0.073-0.025-0.293-0.363-0.374-0.398l-0.001,0.017
									c-0.09-0.01-0.013-0.074-0.03-0.135c-0.067,0.077-0.15,0.075-0.172,0.064l0.016-0.015c-0.037-0.012-0.155-0.006-0.205-0.037
									l0.041-0.038c-0.076,0.008-0.123-0.073-0.151-0.093c-0.04-0.072-0.057-0.227-0.184-0.249l0.064-0.16l-0.018,0.004
									c0,0-1.432,1.28-1.622,1.667l-0.041,0.038l0.025,0.014c0.004,0.043,0.06,0.008,0.02,0.046l-0.027-0.037
									c0.012,0.035-0.025,0.039-0.056,0.053c0.006,0.014,0.011,0.028,0.007,0.048c0.02-0.011,0.013-0.02,0.018-0.032
									c0.026-0.001,0.081-0.021,0.078,0.013c0.02,0.028-0.062,0.065-0.038,0.098c0.118,0.178,0.216,0.367,0.374,0.507
									c-0.013,0.02-0.016,0.015-0.028,0.018c0.062,0.028,0.096,0.074,0.155,0.097c-0.006,0.029-0.027,0.056-0.04,0.076
									C31.903,26.704,32.139,26.934,32.135,26.946z"/>
							</g>
						</g>
					</g>
				</g>
			</g>
			<g>
				<g>
					<g>
						<g>
							<g>
								<path fill="#4AA147" d="M39.239,34.228c-0.016-0.102-0.114-0.208-0.204-0.312C39.069,34.032,39.13,34.129,39.239,34.228z"/>
								<polygon fill="#4AA147" points="39.035,33.913 39.032,33.912 39.035,33.916 								"/>
								<path fill="#4AA147" d="M37.557,36.264c0.039,0.033,0.083,0.071,0.128,0.11C37.644,36.336,37.601,36.297,37.557,36.264z"/>
								<path fill="#4AA147" d="M36.066,30.667l-0.105-0.037c0.02-0.022,0.119,0.043,0.104,0.023
									c-0.06-0.041-0.047-0.049-0.032-0.046c0.059-0.042,0.185-0.14,0.187-0.195c0.006,0.01,0.113-0.091,0.138-0.053
									c-0.023-0.086,0.094-0.119,0.146-0.199c0.009-0.039-0.034,0.001-0.068,0.002l0.131-0.169
									c0.076-0.041,0.123-0.023,0.065,0.046c0.172-0.161,0.592-0.555,1.055-0.99c0.334-0.323,0.228-0.207,0.254-0.226
									c0.005,0.002,0.008,0.002,0.008,0.002s0.003-0.002,0.006-0.009c0.012-0.071,0.001-0.026,0.006-0.15
									c0.018-0.055,0.011,0.037,0.027-0.023c-0.032,0.161,0.017,0.063-0.04,0.201l0.037-0.073l-0.021,0.046
									c0.028-0.029,0.039-0.028,0.039-0.028c0.014,0.018,0.021,0.046,0.231,0.269c0.26,0.243,0.456,0.287,0.568,0.455
									c-0.02-0.021-0.042-0.11,0.037-0.059c-0.037,0.059,0.208,0.139,0.191,0.219c0.07,0.058,0.271,0.271,0.266,0.135
									c0.002,0.068,0.174,0.266,0.035,0.184c0.06,0.064,0.111,0.134,0.17,0.165l-0.062-0.098c0.22,0.201,0.284,0.366,0.48,0.444
									l-0.052-0.104c0.13,0.122,0.24,0.222,0.225,0.336l-0.149-0.109c0.21,0.207,0.34,0.329,0.549,0.468l-0.06-0.064
									c0.143,0.078,0.518,0.394,0.892,0.705c0.239,0.194,0.467,0.38,0.657,0.534l0.017-0.112l0.137,0.113
									c-0.011-0.02-0.243,0.045-0.23,0.022c0.091,0.125,0.329,0.606,0.249,1.125c-0.052,0.52-0.406,0.925-0.538,1.004
									c-0.117,0.052-0.092-0.07-0.1-0.078c-0.086,0.113,0.007,0.103-0.095,0.169c-0.034,0.009-0.027-0.049-0.019-0.067
									c-0.037,0.037-0.088,0.046-0.073,0.076c0.066-0.019,0.095,0.071,0.152,0.099c-0.045,0.034-0.094,0.061-0.144,0.086
									l-0.022-0.052c-0.029,0.017-0.005,0.183-0.176,0.228c-0.273,0.087-0.585,0.15-0.874,0.114
									c0.008-0.033,0.069-0.051,0.127-0.067c-0.037-0.004-0.094,0.002-0.126-0.022c0.062,0.066-0.12,0.023-0.071,0.054
									c-0.237,0.11-0.471-0.101-0.673-0.108c-0.032,0.047-0.38,0.466-0.819,0.803c-0.431,0.346-0.947,0.61-0.993,0.661
									c-0.096-0.089-0.189-0.179-0.21-0.215c-0.001,0.047,0.179,0.235,0.296,0.309l0.068-0.046
									c0.265,0.163,0.029,0.081,0.28,0.256c-0.019,0.061-0.268-0.086-0.461-0.248c0.164,0.155,0.331,0.321,0.444,0.317
									c0.169,0.133-0.064,0.054,0.147,0.211c0.17,0.085,0.419,0.127,0.6,0.243l-0.008,0.009c0.472,0.248,0.783,0.137,1.235,0.251
									l-0.052,0.018c0.165,0.052,0.495,0.013,0.799,0.025c-0.088-0.008-0.164-0.048,0.014-0.069c0.348,0,0.57-0.094,0.826-0.116
									l0.209-0.138c0.278-0.1,0.766-0.315,1.241-0.727c0.471-0.401,0.933-1.005,1.19-1.695c0.257-0.689,0.321-1.435,0.226-2.046
									c-0.086-0.614-0.294-1.089-0.429-1.349l0.029,0.037c-0.103-0.199-0.231-0.42-0.401-0.637
									c-0.147-0.209-0.412-0.472-0.533-0.589c-0.304-0.296-0.636-0.62-0.97-0.946c-0.669-0.65-1.346-1.298-1.82-1.711
									c-0.094-0.181-0.293-0.36-0.424-0.515c0.061,0.098,0.003,0.101-0.057,0.037c-0.164-0.16-0.243-0.238-0.299-0.293
									c-0.057-0.051-0.068-0.053-0.079-0.054c-0.023-0.002-0.051-0.004-0.447-0.38c-0.248-0.226-0.668-0.637-1.176-1.144
									c-0.631,0.62-1.407,1.382-2.105,2.067c-0.432,0.41-0.812,0.76-0.99,0.911c-0.089,0.153-0.221,0.293-0.356,0.43
									c-0.149,0.151-0.225,0.223-0.457,0.495l0.025-0.056c-0.211,0.235-0.956,0.963-1.732,1.721
									c0.746,0.764,1.522,1.558,1.799,1.812l-0.061-0.079c0.07,0.061,0.12,0.105,0.159,0.139c0.029,0.028,0.047,0.045,0.066,0.063
									c0.035,0.038,0.055,0.069,0.072,0.102c0.034,0.064,0.053,0.129,0.144,0.242c0.045-0.099,0.308,0.082,0.397,0.161
									l-0.019,0.013c0.139,0.115,0.49,0.341,0.71,0.542l-0.048,0.031c0.218,0.133,0.53,0.48,0.66,0.602
									c0.272,0.305,0.648,0.818,1.085,1.151l0.137,0.361l0.048,0.025c0,0,1.757-0.955,1.537-1.753l0.047-0.031l-0.106-0.096
									c-0.101-0.14-0.203-0.15-0.155-0.181l0.161,0.17c-0.11-0.133-0.004-0.069,0.064-0.045c-0.047-0.054-0.091-0.108-0.12-0.161
									c-0.039-0.009,0.001,0.034,0.012,0.061c-0.079-0.051-0.207-0.105-0.268-0.203c-0.121-0.128,0.056-0.072-0.085-0.221
									c-0.734-0.795-1.43-1.582-2.211-2.346c-0.001-0.034,0.019-0.012,0.049,0.003c-0.131-0.121-0.237-0.218-0.344-0.316
									c-0.008-0.002-0.015-0.004-0.033-0.004c0.02-0.016,0.053-0.031,0.075-0.041c-0.023,0.013-0.044,0.009-0.062-0.002
									C36.048,30.674,36.06,30.665,36.066,30.667z"/>
							</g>
						</g>
					</g>
				</g>
			</g>
			<g>
				<g>
					<g>
						<g>
							<g>
								<path fill="#4AA147" d="M20.633,17.424c0.062-0.019,0.07-0.053,0.082-0.084C20.656,17.362,20.629,17.388,20.633,17.424z"/>
								<polygon fill="#4AA147" points="20.717,17.339 20.716,17.338 20.715,17.339 								"/>
								<path fill="#4AA147" d="M24.674,10.731l-0.044,0.006C24.645,10.738,24.66,10.738,24.674,10.731z"/>
								<path fill="#4AA147" d="M21.204,15.918l-0.09-0.044c0.031-0.067,0.114,0.028,0.121-0.042
									c-0.117-0.084,0.062-0.094,0.004-0.148c0.01,0.006,0.028-0.022,0.066,0c-0.064-0.045-0.002-0.039-0.01-0.067
									c-0.016-0.017-0.023-0.006-0.046-0.012l-0.002-0.056c0.032-0.004,0.074,0.014,0.07,0.035c0.085-0.1,0.466-0.548,0.543-0.655
									c-0.055-0.026-0.053,0.03-0.134-0.018c-0.014-0.06,0.05-0.027,0.02-0.074c0.111,0.08,0.078-0.037,0.197,0.037l-0.05-0.06
									l0.046,0.019c0.047-0.169-0.01-0.059,0.104-0.139c0.051-0.061,0.007-0.166,0.067-0.167c-0.005,0.004-0.05-0.019-0.048-0.048
									c0.048,0.048,0.01-0.075,0.062-0.031c0.01-0.021,0.065-0.06-0.011-0.115c0.037,0.026,0.098,0.005,0.094,0.057
									c0.018-0.01,0.042-0.011,0.041-0.035l-0.037-0.005c0.048-0.051,0.121-0.016,0.106-0.11l-0.043-0.014
									c0.03-0.03,0.054-0.057,0.121,0.008l-0.017,0.048c0.053-0.042,0.081-0.072,0.099-0.147l-0.018,0.01
									c0.009-0.11,0.299-0.39,0.32-0.513l-0.062-0.049l0.03-0.08c-0.008,0.003,0.077,0.219,0.061,0.201
									c0.104-0.074,0.719-0.378,0.857-0.337c0.056,0.026,0.036,0.107,0.038,0.118c0.049-0.04,0.006-0.079,0.055-0.086
									c0.016,0.009,0.01,0.055,0.005,0.067c0.019-0.014,0.043,0.005,0.037-0.028c-0.032-0.018-0.04-0.107-0.065-0.16l0.065-0.009
									l0.009,0.055c0.014-0.001,0.003-0.162,0.074-0.14c0.113,0.008,0.228-0.029,0.338-0.034c0.002,0.033-0.018,0.057-0.039,0.08
									c0.015-0.001,0.035-0.013,0.051,0.009c-0.033-0.054,0.041-0.046,0.018-0.068c0.068-0.143,0.184-0.021,0.25-0.118
									c-0.019-0.122,0.112-2.112,0.129-2.258c0.034,0.001,0.068,0.002,0.078,0.014c-0.009-0.034-0.076-0.048-0.111-0.026
									l-0.005,0.078c-0.08,0.031-0.02-0.046-0.099-0.037c-0.006-0.064,0.067-0.081,0.132-0.09
									c-0.058-0.005-0.119-0.049-0.14,0.022c-0.056-0.024,0.004-0.078-0.065-0.102c-0.047,0.021-0.106,0.087-0.163,0.052l0-0.011
									c-0.139-0.056-0.195,0.101-0.321,0.057l0.011-0.023c-0.047-0.031-0.125,0.031-0.207,0.004
									c0.024,0.009,0.049,0.052,0.004,0.067c-0.094-0.027-0.148,0.023-0.221-0.016l-0.051,0.071
									c-0.316,0.02-1.454,0.472-1.7,0.661l0.006-0.014c-0.414,0.215-1.218,0.751-1.489,1.159c-0.096,0.004-0.162,0.084-0.23,0.124
									c0.05-0.011,0.069,0.03,0.043,0.051c-0.163,0.166,0.019,0.041-0.12,0.232c-0.307,0.388-0.675,0.853-0.955,1.207
									c0.011,0.153-0.112,0.269-0.117,0.407l-0.014-0.021c-0.043,0.126-0.395,0.812-0.395,0.979l0.018-0.017
									c0.019,0.148-0.071,0.102-0.129,0.201c0.102,0.012,0.129,0.139,0.126,0.183l-0.021-0.007
									c-0.002,0.069,0.051,0.233,0.052,0.342l-0.054-0.014c0.045,0.1-0.005,0.263-0.009,0.329
									c-0.053,0.142-0.152,0.368-0.091,0.571l-0.165,0.127l0.015,0.019c0,0,0.477,0.057,1.007,0.072
									c0.53,0.017,1.111-0.002,1.321-0.083l0.055,0.004l-0.005-0.034c0.03-0.04-0.034-0.061,0.022-0.056l-0.01,0.055
									c0.018-0.04,0.046-0.011,0.077,0.005c0.006-0.017,0.014-0.032,0.032-0.045c-0.021-0.009-0.023,0.005-0.036,0.011
									c-0.018-0.022-0.069-0.055-0.042-0.08c0.007-0.041,0.09,0.002,0.098-0.045c0.059-0.246,0.154-0.468,0.21-0.705
									c0.024,0,0.021,0.007,0.03,0.016c-0.004-0.077,0.017-0.138,0.012-0.21c0.03-0.01,0.065-0.004,0.089-0.002
									C21.064,16.277,21.182,15.915,21.204,15.918z"/>
							</g>
						</g>
					</g>
				</g>
			</g>
		</g>
	</g>
</g>
<rect x="-2.801" y="42.003" fill="none" width="62.971" height="13.901"/>
<text transform="matrix(1 0 0 1 6.8289 50.005)" fill="#4AA147" font-family="'YanoneKaffeesatz-Bold'" font-size="10.8873px">SEGUIMIENTO</text>
</svg>
